<?xml version="1.0" encoding="UTF-8" standalone="no"?>
<svg
   xmlns:dc="http://purl.org/dc/elements/1.1/"
   xmlns:cc="http://creativecommons.org/ns#"
   xmlns:rdf="http://www.w3.org/1999/02/22-rdf-syntax-ns#"
   xmlns:svg="http://www.w3.org/2000/svg"
   xmlns="http://www.w3.org/2000/svg"
   xmlns:sodipodi="http://sodipodi.sourceforge.net/DTD/sodipodi-0.dtd"
   xmlns:inkscape="http://www.inkscape.org/namespaces/inkscape"
   id="svg1"
   viewBox="0 0 60 60"
   sodipodi:version="0.32"
   _SVGFile__filename="oldscale/apps/exit.svg"
   version="1.0"
   inkscape:version="0.48.5 r10040"
   y="0"
   x="0"
   sodipodi:docname="exit.svg"
   width="100%"
   height="100%">
  <defs
     id="defs10" />
  <sodipodi:namedview
     id="base"
     bordercolor="#666666"
     inkscape:window-x="0"
     inkscape:window-y="0"
     pagecolor="#ffffff"
     inkscape:zoom="5.3863214"
     inkscape:pageshadow="2"
     borderopacity="1.0"
     inkscape:current-layer="svg1"
     inkscape:cx="10.268207"
     inkscape:cy="22.468175"
     inkscape:window-width="1554"
     inkscape:pageopacity="0.0"
     inkscape:window-height="921"
     showgrid="false"
     inkscape:window-maximized="0" />
  <metadata
     id="metadata8">
    <rdf:RDF>
      <cc:Work>
        <dc:format>image/svg+xml</dc:format>
        <dc:type
           rdf:resource="http://purl.org/dc/dcmitype/StillImage" />
        <cc:license
           rdf:resource="http://creativecommons.org/licenses/publicdomain/" />
        <dc:publisher>
          <cc:Agent
             rdf:about="http://openclipart.org/">
            <dc:title>Openclipart</dc:title>
          </cc:Agent>
        </dc:publisher>
        <dc:title></dc:title>
      </cc:Work>
      <cc:License
         rdf:about="http://creativecommons.org/licenses/publicdomain/">
        <cc:permits
           rdf:resource="http://creativecommons.org/ns#Reproduction" />
        <cc:permits
           rdf:resource="http://creativecommons.org/ns#Distribution" />
        <cc:permits
           rdf:resource="http://creativecommons.org/ns#DerivativeWorks" />
      </cc:License>
    </rdf:RDF>
  </metadata>
  <g
     id="g2998"
     inkscape:export-filename="C:\music-trainer\Graphics\exit.png"
     inkscape:export-xdpi="144.21696"
     inkscape:export-ydpi="144.21696">
    <path
       transform="translate(50 5.1993e-7)"
       style="stroke-linejoin:round;stroke:#ffffff;stroke-linecap:round;stroke-width:5;fill:none"
       d="m-12.504 11.725v7.822c6.0611 3.209 9.5062 9.95 8.2982 16.894-1.3504 7.763-8.0632 13.336-15.942 13.265-7.879-0.07-14.493-5.806-15.704-13.592-1.07-6.879 2.376-13.509 8.358-16.656v-7.703c-7.92 2.716-13.607 9.403-15.228 17.251-0.547 2.647-0.614 5.411-0.179 8.209 1.74 11.19 11.37 19.558 22.694 19.659 11.324 0.102 21.109-8.086 23.05-19.243 1.9412-11.157-4.5348-22.148-15.228-25.876-0.04-0.014-0.078-0.017-0.119-0.03z"
       id="path1747" />
    <path
       d="m-19.999 6.8746v24.511"
       transform="translate(50 5.1993e-7)"
       style="stroke-linejoin:round;stroke:#ffffff;stroke-linecap:round;stroke-width:12.5;fill:none"
       sodipodi:nodetypes="cc"
       id="path1748" />
    <path
       inkscape:export-ydpi="144.21696"
       inkscape:export-xdpi="144.21696"
       inkscape:export-filename="C:\music-trainer\Graphics\path701.png"
       transform="matrix(.95176 0 0 .95176 1.448 1.5234)"
       style="fill-rule:evenodd;fill:#ffcc00;stroke:#000000;stroke-opacity:1.0"
       d="m37.875 10.719v8.219c6.368 3.37 9.988 10.454 8.719 17.75-1.419 8.156-8.472 14.011-16.75 13.937-8.279-0.074-15.228-6.101-16.5-14.281-1.124-7.228 2.496-14.194 8.781-17.5v-8.094c-8.321 2.854-14.296 9.88-16 18.125-0.5746 2.781-0.6446 5.686-0.1875 8.625 1.8285 11.757 11.946 20.549 23.844 20.656 11.897 0.107 22.179-8.496 24.218-20.218 2.039-11.723-4.765-23.27-16-27.188-0.042-0.015-0.082-0.018-0.125-0.031z"
       id="path696" />
    <rect
       ry="3.8987648"
       y="3.7463944"
       x="26.100857"
       height="31.932739"
       width="7.7975297"
       id="rect2996"
       style="opacity:0.97000002;color:#000000;fill:#ffcc00;fill-opacity:1;fill-rule:nonzero;stroke:#000000;stroke-width:1;stroke-opacity:1;marker:none;visibility:visible;display:inline;overflow:visible;enable-background:accumulate" />
  </g>
</svg>
