<?xml version="1.0" encoding="UTF-8" standalone="no"?>
<!-- Created with Inkscape (http://www.inkscape.org/) -->

<svg
   xmlns:dc="http://purl.org/dc/elements/1.1/"
   xmlns:cc="http://creativecommons.org/ns#"
   xmlns:rdf="http://www.w3.org/1999/02/22-rdf-syntax-ns#"
   xmlns:svg="http://www.w3.org/2000/svg"
   xmlns="http://www.w3.org/2000/svg"
   xmlns:xlink="http://www.w3.org/1999/xlink"
   xmlns:sodipodi="http://sodipodi.sourceforge.net/DTD/sodipodi-0.dtd"
   xmlns:inkscape="http://www.inkscape.org/namespaces/inkscape"
   id="svg2"
   viewBox="0 0 575.66 575.66"
   inkscape:export-ydpi="90"
   inkscape:export-xdpi="90"
   version="1.0"
   inkscape:output_extension="org.inkscape.output.svg.inkscape"
   sodipodi:docname="speaker.svg"
   inkscape:export-filename="/home/tony/Desktop/speaker.png"
   inkscape:version="0.48.5 r10040"
   sodipodi:version="0.32"
   width="100%"
   height="100%">
  <defs
     id="defs4">
    <linearGradient
       id="linearGradient3904"
       inkscape:collect="always">
      <stop
         id="stop3906"
         style="stop-color:#f9f9f9"
         offset="0" />
      <stop
         id="stop3908"
         style="stop-color:#333333"
         offset="1" />
    </linearGradient>
    <linearGradient
       id="linearGradient3611"
       inkscape:collect="always">
      <stop
         id="stop3613"
         style="stop-color:#ffffff"
         offset="0" />
      <stop
         id="stop3615"
         style="stop-color:#ffffff;stop-opacity:0"
         offset="1" />
    </linearGradient>
    <linearGradient
       id="linearGradient3519"
       inkscape:collect="always">
      <stop
         id="stop3521"
         style="stop-color:#365047"
         offset="0" />
      <stop
         id="stop3523"
         style="stop-color:#1e2d28"
         offset="1" />
    </linearGradient>
    <linearGradient
       id="linearGradient3465"
       inkscape:collect="always">
      <stop
         id="stop3467"
         style="stop-color:#415c53"
         offset="0" />
      <stop
         id="stop3469"
         style="stop-color:#131c19"
         offset="1" />
    </linearGradient>
    <filter
       id="filter3413"
       height="2.992"
       width="2.992"
       color-interpolation-filters="sRGB"
       y="-.99598"
       x="-.99598"
       inkscape:collect="always">
      <feGaussianBlur
         id="feGaussianBlur3415"
         stdDeviation="31.420865"
         inkscape:collect="always" />
    </filter>
    <filter
       id="filter3417"
       height="2.0865"
       width="2.0865"
       color-interpolation-filters="sRGB"
       y="-.54326"
       x="-.54326"
       inkscape:collect="always">
      <feGaussianBlur
         id="feGaussianBlur3419"
         stdDeviation="17.138654"
         inkscape:collect="always" />
    </filter>
    <filter
       id="filter3453"
       inkscape:collect="always"
       color-interpolation-filters="sRGB">
      <feGaussianBlur
         id="feGaussianBlur3455"
         stdDeviation="18.71372"
         inkscape:collect="always" />
    </filter>
    <filter
       id="filter3480"
       height="1.8222"
       width="1.5206"
       color-interpolation-filters="sRGB"
       y="-.41111"
       x="-.26028"
       inkscape:collect="always">
      <feGaussianBlur
         id="feGaussianBlur3482"
         stdDeviation="37.685081"
         inkscape:collect="always" />
    </filter>
    <filter
       id="filter3485"
       height="1.7315"
       width="1.5086"
       color-interpolation-filters="sRGB"
       y="-.36577"
       x="-.25428"
       inkscape:collect="always">
      <feGaussianBlur
         id="feGaussianBlur3487"
         stdDeviation="41.054705"
         inkscape:collect="always" />
    </filter>
    <filter
       id="filter3492"
       height="1.4575"
       width="2.7747"
       color-interpolation-filters="sRGB"
       y="-.22876"
       x="-.88733"
       inkscape:collect="always">
      <feGaussianBlur
         id="feGaussianBlur3494"
         stdDeviation="24.401562"
         inkscape:collect="always" />
    </filter>
    <clipPath
       id="clipPath3507"
       clipPathUnits="userSpaceOnUse">
      <path
         id="path3509"
         sodipodi:rx="401.42856"
         sodipodi:ry="401.42856"
         style="fill:url(#linearGradient3511)"
         sodipodi:type="arc"
         d="m1125.7 676.65a401.43 401.43 0 1 1 -802.86 0 401.43 401.43 0 1 1 802.86 0z"
         transform="matrix(.47580 0 0 .47580 -77.473 277.56)"
         sodipodi:cy="676.64789"
         sodipodi:cx="724.28571" />
    </clipPath>
    <linearGradient
       id="linearGradient3511"
       y2="275.09"
       xlink:href="#linearGradient3465"
       gradientUnits="userSpaceOnUse"
       x2="738.7"
       y1="1073.6"
       x1="738.7"
       inkscape:collect="always" />
    <filter
       id="filter3535"
       inkscape:collect="always"
       color-interpolation-filters="sRGB">
      <feGaussianBlur
         id="feGaussianBlur3537"
         stdDeviation="14.05"
         inkscape:collect="always" />
    </filter>
    <filter
       id="filter3584"
       inkscape:collect="always"
       color-interpolation-filters="sRGB">
      <feGaussianBlur
         id="feGaussianBlur3586"
         stdDeviation="4.550625"
         inkscape:collect="always" />
    </filter>
    <filter
       id="filter3588"
       inkscape:collect="always"
       color-interpolation-filters="sRGB">
      <feGaussianBlur
         id="feGaussianBlur3590"
         stdDeviation="4.7739852"
         inkscape:collect="always" />
    </filter>
    <filter
       id="filter3597"
       inkscape:collect="always"
       color-interpolation-filters="sRGB">
      <feGaussianBlur
         id="feGaussianBlur3599"
         stdDeviation="5.840625"
         inkscape:collect="always" />
    </filter>
    <clipPath
       id="clipPath3603"
       clipPathUnits="userSpaceOnUse">
      <path
         id="path3605"
         sodipodi:rx="401.42856"
         sodipodi:ry="401.42856"
         style="fill:#13221d"
         sodipodi:type="arc"
         d="m1125.7 676.65a401.43 401.43 0 1 1 -802.86 0 401.43 401.43 0 1 1 802.86 0z"
         transform="matrix(.66512 0 0 .66512 -214.6 149.45)"
         sodipodi:cy="676.64789"
         sodipodi:cx="724.28571" />
    </clipPath>
    <filter
       id="filter3715"
       inkscape:collect="always"
       color-interpolation-filters="sRGB">
      <feGaussianBlur
         id="feGaussianBlur3717"
         stdDeviation="0.80050785"
         inkscape:collect="always" />
    </filter>
    <filter
       id="filter3744"
       inkscape:collect="always"
       color-interpolation-filters="sRGB">
      <feGaussianBlur
         id="feGaussianBlur3746"
         stdDeviation="0.39594727"
         inkscape:collect="always" />
    </filter>
    <clipPath
       id="clipPath3750"
       clipPathUnits="userSpaceOnUse">
      <path
         id="path3752"
         sodipodi:rx="7.7781744"
         sodipodi:ry="7.7781744"
         style="fill:url(#radialGradient3754)"
         sodipodi:type="arc"
         d="m1521.3 416.14a7.7782 7.7782 0 1 1 -15.556 0 7.7782 7.7782 0 1 1 15.556 0z"
         transform="matrix(1.1136 0 0 1.1136 -171.64 -44.741)"
         sodipodi:cy="416.14285"
         sodipodi:cx="1513.562" />
    </clipPath>
    <radialGradient
       id="radialGradient3754"
       gradientUnits="userSpaceOnUse"
       cy="412.91"
       cx="1515.9"
       gradientTransform="matrix(1.2024 0 0 1.2024 -306.64 -83.703)"
       r="7.7782"
       inkscape:collect="always">
      <stop
         id="stop3733"
         style="stop-color:#f9f9f9"
         offset="0" />
      <stop
         id="stop3735"
         style="stop-color:#555555"
         offset="1" />
    </radialGradient>
    <filter
       id="filter3900"
       inkscape:collect="always"
       color-interpolation-filters="sRGB">
      <feGaussianBlur
         id="feGaussianBlur3902"
         stdDeviation="0.32373105"
         inkscape:collect="always" />
    </filter>
    <style
       id="style2790-0"
       type="text/css">.str0 {stroke:#1B1C1F;stroke-width:0.267799}
    .fil3 {fill:none}
    .fil2 {fill:#1B1C1F}
    .fil0 {fill:#1B1C1F;fill-rule:nonzero}
    .fil1 {fill:#7EB719;fill-rule:nonzero}</style>
    <style
       id="style2790"
       type="text/css">.str0 {stroke:#1B1C1F;stroke-width:0.267799}
    .fil3 {fill:none}
    .fil2 {fill:#1B1C1F}
    .fil0 {fill:#1B1C1F;fill-rule:nonzero}
    .fil1 {fill:#7EB719;fill-rule:nonzero}</style>
    <filter
       id="filter6823"
       inkscape:collect="always"
       color-interpolation-filters="sRGB">
      <feGaussianBlur
         id="feGaussianBlur6825"
         stdDeviation="3.48"
         inkscape:collect="always" />
    </filter>
    <linearGradient
       id="linearGradient3199"
       y2="275.22"
       xlink:href="#linearGradient3519"
       gradientUnits="userSpaceOnUse"
       x2="724.29"
       y1="1065.5"
       x1="722.12"
       inkscape:collect="always" />
    <radialGradient
       id="radialGradient3205"
       gradientUnits="userSpaceOnUse"
       cy="625.04"
       cx="724.29"
       r="401.43"
       inkscape:collect="always">
      <stop
         id="stop3443"
         style="stop-color:#1e2f29"
         offset="0" />
      <stop
         id="stop3445"
         style="stop-color:#000000"
         offset="1" />
    </radialGradient>
    <radialGradient
       id="radialGradient3207"
       gradientUnits="userSpaceOnUse"
       cy="494.51"
       cx="127.86"
       gradientTransform="matrix(1.366 0 0 1.366 -46.801 -181.01)"
       r="37.857"
       inkscape:collect="always">
      <stop
         id="stop3399"
         style="stop-color:#ffffff"
         offset="0" />
      <stop
         id="stop3401"
         style="stop-color:#ffffff;stop-opacity:0"
         offset="1" />
    </radialGradient>
    <radialGradient
       id="radialGradient3209"
       gradientUnits="userSpaceOnUse"
       cy="494.51"
       cx="127.86"
       gradientTransform="matrix(1.7644 0 0 1.7644 -97.728 -377.98)"
       r="37.857"
       inkscape:collect="always">
      <stop
         id="stop3407"
         style="stop-color:#ffffff"
         offset="0" />
      <stop
         id="stop3409"
         style="stop-color:#ffffff;stop-opacity:0"
         offset="1" />
    </radialGradient>
    <radialGradient
       id="radialGradient3211"
       xlink:href="#linearGradient3611"
       gradientUnits="userSpaceOnUse"
       cy="422.4"
       cx="414.26"
       gradientTransform="matrix(1.3426 0 0 1.3426 -141.94 -144.73)"
       r="238.85"
       inkscape:collect="always" />
    <radialGradient
       id="radialGradient3213"
       xlink:href="#linearGradient3611"
       gradientUnits="userSpaceOnUse"
       cy="422.4"
       cx="414.26"
       gradientTransform="matrix(1.2922 0 0 1.2922 -121.07 -123.44)"
       r="238.85"
       inkscape:collect="always" />
    <linearGradient
       id="linearGradient3215"
       y2="793.25"
       gradientUnits="userSpaceOnUse"
       x2="71.695"
       y1="404.34"
       x1="466.83"
       inkscape:collect="always">
      <stop
         id="stop3629"
         style="stop-color:#657570"
         offset="0" />
      <stop
         id="stop3631"
         style="stop-color:#293b35"
         offset="1" />
    </linearGradient>
    <linearGradient
       id="linearGradient3217"
       y2="944.55"
       xlink:href="#linearGradient3611"
       gradientUnits="userSpaceOnUse"
       x2="422"
       y1="357.7"
       x1="975.53"
       inkscape:collect="always" />
    <radialGradient
       id="radialGradient3221"
       xlink:href="#linearGradient3904"
       gradientUnits="userSpaceOnUse"
       cy="412.91"
       cx="1515.9"
       gradientTransform="matrix(1.1274 0 0 1.1274 -193.01 -52.75)"
       r="7.7782"
       inkscape:collect="always" />
  </defs>
  <sodipodi:namedview
     id="base"
     fit-margin-left="0"
     inkscape:zoom="0.35355339"
     borderopacity="1.0"
     inkscape:current-layer="g5929"
     inkscape:cx="442.21249"
     inkscape:window-y="24"
     inkscape:window-maximized="0"
     showgrid="false"
     fit-margin-right="0"
     inkscape:guide-bbox="true"
     showguides="false"
     bordercolor="#666666"
     inkscape:window-x="0"
     guidetolerance="10"
     objecttolerance="10"
     fit-margin-bottom="0"
     inkscape:window-width="1024"
     inkscape:pageopacity="0.0"
     inkscape:pageshadow="2"
     pagecolor="#ffffff"
     gridtolerance="10000"
     inkscape:cy="424.7336"
     inkscape:document-units="px"
     inkscape:window-height="700"
     fit-margin-top="0">
    <sodipodi:guide
       id="guide3669"
       position="80.644513,613.18751"
       orientation="36.76955,0" />
    <sodipodi:guide
       id="guide3673"
       position="243.42552,254.29093"
       orientation="0,63.63961" />
  </sodipodi:namedview>
  <g
     id="layer1"
     inkscape:label="Layer 1"
     inkscape:groupmode="layer"
     transform="translate(-186.5 -278.13)">
    <path
       id="path2483"
       style="fill:#800000"
       inkscape:connector-curvature="0"
       d="m-1007.7 172.9 0.9692 37.138c-1.1782-0.89144-2.7584-1.4286-4.7481-1.6654 1.6426-1.446 2.4029-3.6445 2.3274-6.5365l-0.1923-7.3694c-0.092-3.5368-1.3572-5.9573-3.8539-7.286l-0.1641-6.2869h-7.9522l0.164 6.2869c-1.8192 1.0356-2.9146 2.7339-3.2826 5.0377-0.3619-1.6502-1.0908-3.0236-2.187-4.0385-1.2817-1.192-2.8813-1.8176-4.8379-1.9152l-0.1402-5.3709h-8.1603l0.7615 29.186h7.6191c2.0518 0 3.7383-0.57623 5.0754-1.7486 0.954-0.84987 1.6285-1.9466 1.996-3.2892l0.1074 4.1219c-2.6464 1.1724-3.9095 3.3515-3.8262 6.5365 0.053 2.0518 0.6735 3.7311 1.8811 5.0794 1.4898 1.6806 3.6887 2.5398 6.5612 2.5398h7.3693c2.8724 0 5.0266-0.85933 6.4287-2.5398 1.1372-1.3483 1.6696-3.0276 1.6162-5.0794-0.063-2.4045-0.8454-4.2543-2.3501-5.4957h14.156c5.6798 0 8.431-2.3872 8.3065-7.1611l-0.53791-20.609c-0.10064-3.8678-1.1333-6.5235-3.1219-7.9522-1.5614-1.0801-4.1749-1.582-7.8685-1.5821h-12.116zm36.305 0 0.73561 28.187c0.0408 1.568-0.41278 2.3731-1.3537 2.3731-1.0802 0-1.6452-0.8255-1.6888-2.4981l-0.24446-9.3677h-8.9929l0.17056 6.5366c0.11288 4.3209 1.3386 7.52 3.6223 9.5759 1.8207 1.6726 4.1675 2.4981 7.0596 2.4981 3.0317 0 5.473-0.82548 7.3458-2.4981 2.3159-2.0559 3.4019-5.255 3.2891-9.5759l-0.65845-25.23h-9.2846zm-25.554 6.7448c0.12104-0.0253 0.23542 0 0.37483 0 1.115 0 1.6855 0.77033 1.7273 2.3732l0.50963 19.527c0.0408 1.6029-0.48853 2.3732-1.6035 2.3732-1.1151 0-1.6854-0.77033-1.7272-2.3732l-0.5096-19.527c-0.0367-1.4025 0.37959-2.1979 1.2286-2.3732zm102.38 0.12526c-0.34612 0.0773-0.65739 0.27512-0.94246 0.5829l-2.0263 2.1233-2.8101-0.79099c-0.21643-0.0586-0.43131-0.0826-0.62673-0.0826-0.44941 0-0.82777 0.12255-1.1132 0.41634-0.30553 0.27353-0.44101 0.65257-0.42978 1.0825 0.008 0.29312 0.10826 0.58114 0.27262 0.87426l1.3494 2.2483h-6.1619l-0.1391-5.3292h-8.1604l0.26296 10.076c-0.4437-1.2018-1.115-2.2144-2.0351-2.9977-1.3983-1.1723-3.1566-1.7486-5.2083-1.7486-2.0518 0-3.7381 0.57636-5.0754 1.7486-1.1011 0.98098-1.7838 2.3179-2.1035 3.9553-0.40478-1.6391-1.1982-2.9736-2.3515-3.9553-1.3983-1.1723-3.1148-1.7486-5.1666-1.7486-2.0517 0-3.7382 0.57636-5.0755 1.7486-1.169 1.0415-1.8908 2.4656-2.179 4.2467-0.36173-1.6514-1.0902-3.023-2.1871-4.0385-1.2817-1.192-2.8814-1.8175-4.838-1.9152l-0.1402-5.3709h-8.1604l0.7617 29.186h7.6192c2.0518 0 3.7382-0.57622 5.0753-1.7486 1.1712-1.0433 1.892-2.4609 2.1791-4.2467 0.38034 1.7858 1.1752 3.2034 2.4007 4.2467 1.3985 1.1724 3.115 1.7486 5.1667 1.7486s3.7382-0.57622 5.0753-1.7486c1.1071-0.98617 1.828-2.3057 2.145-3.9553 0.40367 1.6479 1.1523 2.9698 2.3099 3.9553 1.3985 1.1724 3.1148 1.7486 5.1666 1.7486s3.7799-0.57622 5.117-1.7486c0.88238-0.78605 1.4981-1.7902 1.8786-2.9977l0.1239 4.7463h14.905 7.6191 12.157c-1.5773 1.2596-2.3326 3.1502-2.2681 5.6206 0.0536 2.0517 0.6736 3.7311 1.8812 5.0794 1.49 1.6806 3.6888 2.5398 6.5613 2.5398h7.3694c2.8724 0 5.0265-0.85935 6.4287-2.5398 1.1372-1.3483 1.6696-3.0276 1.6161-5.0794-0.0695-2.6612-1.024-4.634-2.8595-5.8704 0.42958 0.17585 0.9238 0.24981 1.4221 0.24981 0.99656 0 1.8054-0.33749 2.4709-1.0409 0.68561-0.68386 1.0422-1.5431 1.0162-2.5396-0.0258-0.99657-0.42624-1.8142-1.1477-2.4981-0.70224-0.70348-1.5298-1.0825-2.5263-1.0825-0.99656 0-1.868 0.37902-2.5531 1.0825-0.66602 0.68386-0.9599 1.5015-0.93404 2.4981 0.0258 0.99656 0.36382 1.8558 1.0655 2.5396 0.18047 0.17587 0.39728 0.32615 0.59486 0.45804-1.0526-0.57328-2.3232-0.94138-3.8597-1.1242 1.6428-1.4459 2.4447-3.6445 2.3692-6.5365l-0.19233-7.3694c-0.0924-3.5367-1.3989-5.9572-3.8957-7.286l-0.16408-6.2869h-7.9521l0.16408 6.2869c-1.5149 0.8624-2.5119 2.1717-3.0205 3.9136-0.21406-1.1358-0.54222-2.139-1.0753-2.9144-0.91347-1.3092-2.2204-1.9569-3.8814-1.9569h-5.8704c-0.16427-0.18319-0.36809-0.36651-0.63761-0.4996l-2.6577-1.3323-0.20028-2.8727c0.0248-0.52759-0.12799-0.91689-0.44898-1.249-0.30174-0.33215-0.68767-0.49962-1.1372-0.49962-0.1224 0-0.21769-0.0253-0.33308 0zm0.3711 1.4571c0.0592 0.02 0.10567 0.11589 0.0902 0.2915l0.2241 3.7887 3.4212 1.8736-0.20597 0.0826-3.2577 1.2073-0.1122 2.0817-0.0423-0.0413 0.47265 18.111h-5.2042l-0.47268-18.111-0.0173-0.66616-1.6578 0.29138c-0.15528 0.0386-0.22862 0.0613-0.24873 0.0413-0.0589-0.02-0.10431-0.0666-0.0858-0.12526 0.056-0.0972 0.1235-0.16905 0.16112-0.2081l2.1196-3.3308-1.9134-3.1227c-0.0831-0.17572-0.13288-0.29137-0.13288-0.29137 0.0185-0.0586 0.1582-0.0586 0.37478 0l3.6899 0.99923 2.5523-2.7063c0.13329-0.1367 0.20593-0.18599 0.24547-0.16653zm-144.07 1.1242h5.2459l0.1412 5.4125c0.3117-0.0386 0.6013-0.0826 0.9138-0.0826 1.7001 0 3.1013 0.47765 4.2005 1.4156 1.3588 1.1528 2.0754 2.9478 2.1385 5.3708l0.1923 7.3694c0.064 2.4229-0.5595 4.2179-1.8582 5.3708-1.0501 0.93795-2.4264 1.4156-4.1265 1.4156h-6.1619l-0.6856-26.271zm18.444 0h5.0376l0.1499 5.7456c2.4857 0.8989 3.7431 3.0286 3.8301 6.37l0.1925 7.3694c0.063 2.4229-0.5596 4.2179-1.8584 5.3708-1.0503 0.93795-2.4265 1.4156-4.1266 1.4156-0.3908 0-0.7535-0.0253-1.1261-0.0826l0.1663 6.3701h-4.0802c-0.7816 0-1.1578 0.30764-1.143 0.87427 0.015 0.56676 0.406 0.8327 1.1875 0.8327h10.617c1.0553 0 1.5746-0.29058 1.5583-0.91598-0.016-0.62524-0.5764-0.95753-1.6903-0.95753h-4.8712l-0.132-5.0378h2.3731c2.9702 0 5.1155 0.59581 6.4157 1.7486 1.0802 0.95754 1.644 2.3708 1.6929 4.2467 0.045 1.7-0.3976 3.0667-1.3079 4.1219-1.1178 1.3483-2.8957 1.9985-5.3188 1.9985h-7.3692c-2.4231 0-4.235-0.65016-5.423-1.9985-0.9655-1.0552-1.479-2.4219-1.5233-4.1219-0.076-2.9115 1.2377-4.7531 3.8953-5.4957l-0.4108-15.738c-0.086-3.3022 1.0359-5.41 3.4154-6.3284l-0.151-5.7871zm61.702 0h5.2042l0.14126 5.4125c0.31167-0.0386 0.64281-0.0826 0.95551-0.0826 1.7 0 3.1011 0.47765 4.2004 1.4156 1.3588 1.1528 2.0754 2.9478 2.1386 5.3708l0.19233 7.3694c0.0632 2.4229-0.55967 4.2179-1.8583 5.3708-1.0503 0.93795-2.4265 1.4156-4.1265 1.4156h-6.1619l-0.68561-26.271zm44.257 0h5.2044l0.3336 12.782 1.5124-7.4525h4.9129l-0.22591 0.91597-0.31896 0.54116c-0.20672 0.31269-0.31619 0.64763-0.30699 0.99924 0.005 0.22501 0.083 0.42899 0.18303 0.62456l-1.6779 7.4942c1.866 0.37131 2.846 2.1662 2.9296 5.3708l0.13043 4.9961h-5.2042l-0.12499-4.7879c-0.0257-0.97699-0.32466-1.4988-0.87182-1.4988-0.48855 0-0.7363 0.50227-0.71029 1.4988l0.12499 4.7879h-5.2044l-0.68564-26.271zm39.886 0h5.0378l0.14993 5.7456c2.4856 0.8989 3.7429 3.0286 3.8301 6.37l0.19235 7.3694c0.0633 2.4229-0.51798 4.2179-1.8167 5.3708-1.0502 0.93795-2.4265 1.4156-4.1265 1.4156-0.39078 0-0.79513-0.0253-1.1679-0.0826l0.16624 6.3701h-4.0802c-0.78152 0-1.1577 0.30764-1.1429 0.87427 0.0148 0.56676 0.40594 0.8327 1.1875 0.8327h10.617c1.0552 0 1.5745-0.29058 1.5582-0.91598-0.0163-0.62524-0.57656-0.95753-1.6904-0.95753h-4.8713l-0.13152-5.0378h2.3732c2.9701 0 5.1155 0.59581 6.4156 1.7486 1.0802 0.95754 1.644 2.3708 1.6929 4.2467 0.0443 1.7-0.39759 3.0667-1.308 4.1219-1.1176 1.3483-2.8957 1.9985-5.3186 1.9985h-7.3694c-2.4229 0-4.2349-0.65016-5.4229-1.9985-0.96546-1.0552-1.4788-2.4219-1.5231-4.1219-0.076-2.9115 1.2374-4.7531 3.8951-5.4957l-0.41074-15.738c-0.0862-3.3022 1.0359-5.41 3.4154-6.3284l-0.15102-5.7871zm-20.8 0.66615-1.9452 2.04-2.7257-0.74943 1.3986 2.5398-1.5213 2.3315 2.8181-0.49962 1.8062 2.2066 0.34245-2.8311 2.5979-0.95751-2.615-1.2907-0.15539-2.7894zm45.049 3.2058c-2.0517 0-3.7381 0.57635-5.0754 1.7486-1.6232 1.4461-2.4035 3.6225-2.3286 6.495l0.19233 7.3694c0.0749 2.8724 0.96896 5.0489 2.6676 6.495 1.3985 1.1724 3.1148 1.7486 5.1666 1.7486 3.8925 0 6.2294-1.9293 6.9685-5.7872 0.39729 1.6871 1.1764 3.0364 2.3536 4.0386 1.3985 1.1724 3.1149 1.7486 5.1666 1.7486 2.0518 0 3.7383-0.57621 5.0755-1.7486 0.8721-0.77698 1.4978-1.7673 1.8796-2.9561l0.1228 4.7048h21.483l-0.4423-16.945c-0.054-2.0908-0.5037-3.743-1.3365-4.9544-0.9136-1.3093-2.2206-1.9569-3.8815-1.9569h-16.446l0.1228 4.7048c-0.4439-1.184-1.1238-2.1814-2.0339-2.9561-1.3985-1.1723-3.115-1.7486-5.1667-1.7486s-3.7382 0.57634-5.0753 1.7486c-1.1504 1.0248-1.8838 2.4222-2.1813 4.1634-0.3178-1.5155-0.9127-2.7577-1.8465-3.7471-1.3463-1.4264-3.1581-2.165-5.3857-2.165zm-87.269 1.4573c1.7 0 3.1012 0.47761 4.2004 1.4156 1.3588 1.1529 2.0754 2.9478 2.1386 5.3708l0.19233 7.3694c0.0632 2.4229-0.55968 4.2179-1.8583 5.3708-1.0503 0.93795-2.4265 1.4156-4.1265 1.4156s-3.1012-0.47762-4.2004-1.4156c-1.3588-1.1528-2.0754-2.9478-2.1386-5.3708l-0.19232-7.3694c-0.0633-2.4229 0.55968-4.2179 1.8583-5.3708 1.0503-0.93795 2.4265-1.4156 4.1265-1.4156zm14.697 0c1.7 0 3.1013 0.47761 4.2004 1.4156 1.359 1.1529 2.0754 2.9478 2.1386 5.3708l0.19231 7.3694c0.0632 2.4229-0.55954 4.2179-1.8583 5.3708-1.0502 0.93795-2.4265 1.4156-4.1265 1.4156s-3.0595-0.47762-4.1587-1.4156c-1.3588-1.1528-2.0754-2.9478-2.1386-5.3708l-0.19233-7.3694c-0.0632-2.4229 0.5597-4.2179 1.8583-5.3708 1.0503-0.93795 2.3848-1.4156 4.0848-1.4156zm39.053 0c2.3644 0 3.5865 1.8195 3.6813 5.454l0.40419 15.488h-5.2044l-0.39986-15.321c-0.0254-0.97698-0.32355-1.4571-0.87072-1.4571-0.48843 0-0.69462 0.50227-0.66859 1.4988l0.39876 15.28h-5.2459l-0.50528-19.36 1.6107-0.49961c0.58756-0.15775 0.96018-0.46004 1.1429-0.8744l5.6569-0.2081zm33.557 0c1.7978 0 3.2456 0.57115 4.2902 1.6654 1.0852 1.1529 1.6553 2.805 1.7114 4.9544l0.101 3.8721h-5.0377l-0.14449-5.5374c-0.0204-0.78153-0.3382-1.1658-0.90481-1.1658-0.56665 0-0.82267 0.38424-0.80229 1.1658l0.27708 10.617c0.0273 1.0552 0.332 1.5821 0.95726 1.5821 0.62539 0 0.94325-0.55156 0.9142-1.6654l-0.0891-3.414h5.0377l0.024 0.91597c0.077 2.9701-0.4626 5.0999-1.5824 6.37-0.92988 1.0552-2.3296 1.5821-4.2055 1.5821-1.7 0-3.1011-0.47763-4.2004-1.4156-1.3588-1.1528-2.0754-2.9478-2.1386-5.3708l-0.19234-7.3694c-0.0632-2.4229 0.55971-4.2179 1.8583-5.3708 1.0503-0.93794 2.4265-1.4156 4.1265-1.4156zm14.489 0c1.7 0 3.1011 0.47761 4.2004 1.4156 1.3589 1.1529 2.0754 2.9478 2.1386 5.3708l0.1923 7.3694c0.063 2.4229-0.5597 4.2179-1.8583 5.3708-1.0501 0.93795-2.4265 1.4156-4.1265 1.4156s-3.1011-0.47762-4.2004-1.4156c-1.3588-1.1528-2.0754-2.9478-2.1386-5.3708l-0.1923-7.3694c-0.063-2.4229 0.5597-4.2179 1.8583-5.3708 1.0502-0.93795 2.4265-1.4156 4.1265-1.4156zm8.5767 0h14.947c2.3643 0 3.628 1.8195 3.7229 5.454l0.4041 15.488h-5.2459l-0.39989-15.321c-0.026-0.97698-0.2819-1.4571-0.8291-1.4571-0.469 0-0.6946 0.50227-0.6686 1.4988l0.3988 15.28h-5.0379l-0.3999-15.321c-0.025-0.97698-0.3014-1.4571-0.829-1.4571-0.4885 0-0.7363 0.50227-0.7103 1.4988l0.3988 15.28h-5.2044l-0.5465-20.942zm-205.24 3.7887c-0.6252 0-0.9035 0.47511-0.88 1.374l0.2672 10.242c0.024 0.89891 0.3256 1.3323 0.9508 1.3323 0.6253 0 0.9463-0.4334 0.9228-1.3323l-0.2673-10.242c-0.024-0.8989-0.3681-1.374-0.9935-1.374zm14.822 0c-0.6252 0-0.9035 0.47511-0.88 1.374l0.2671 10.242c0.024 0.89891 0.3256 1.3323 0.9509 1.3323s0.9463-0.4334 0.9228-1.3323l-0.2671-10.242c-0.024-0.8989-0.3684-1.374-0.9937-1.374zm65.324 0c-0.62537 0-0.94528 0.47511-0.92181 1.374l0.26728 10.242c0.0234 0.89891 0.36719 1.3323 0.99244 1.3323 0.62522 0 0.90464-0.4334 0.88118-1.3323l-0.26727-10.242c-0.0234-0.8989-0.32651-1.374-0.95182-1.374zm14.822 0c-0.6254 0-0.9036 0.47511-0.88012 1.374l0.2673 10.242c0.0235 0.89891 0.32548 1.3323 0.9507 1.3323 0.62527 0 0.94624-0.4334 0.92278-1.3323l-0.26728-10.242c-0.0234-0.8989-0.36813-1.374-0.99338-1.374zm14.697 0c-0.62525 0-0.90356 0.47511-0.88008 1.374l0.26728 10.242c0.0234 0.89891 0.3255 1.3323 0.95072 1.3323 0.62525 0 0.94635-0.4334 0.92289-1.3323l-0.26728-10.242c-0.0234-0.8989-0.36814-1.374-0.99353-1.374zm51.044 0c-0.62525 0-0.94512 0.47511-0.92169 1.374l0.26731 10.242c0.0234 0.89891 0.36704 1.3323 0.99227 1.3323 0.6254 0 0.90465-0.4334 0.88121-1.3323l-0.26729-10.242c-0.0234-0.8989-0.32638-1.374-0.95181-1.374zm36.055 0c-0.6252 0-0.9035 0.47511-0.88 1.374l0.2672 10.242c0.023 0.89891 0.3255 1.3323 0.9508 1.3323s0.9463-0.4334 0.9228-1.3323l-0.2672-10.242c-0.023-0.8989-0.3682-1.374-0.9936-1.374zm-65.613 0.12526 0.21839 8.3685c-0.44795-1.16-1.1067-2.0248-2.0241-2.5814l1.3072-5.7456h0.0825c0.13691 0 0.27965 0 0.41525-0.0413zm40.803 12.823c0.58621 0 1.093 0.17254 1.514 0.58289 0.42108 0.41036 0.60687 0.91262 0.62202 1.4988 0.0152 0.5862-0.14413 1.0885-0.54377 1.4988-0.39963 0.41037-0.89634 0.62446-1.4825 0.62446-0.58623 0-1.0941-0.2141-1.5151-0.62446-0.42107-0.41034-0.64825-0.91263-0.66358-1.4988-0.0152-0.58619 0.1857-1.0885 0.58534-1.4988 0.39964-0.41035 0.89744-0.58289 1.4836-0.58289z" />
    <g
       id="layer3"
       style="display:none"
       inkscape:label="texts"
       transform="translate(-3204.6 -1134)">
      <text
         id="text9177"
         style="font-size:12px;font-family:Trebuchet MS;fill:#ffffff;line-height:125%"
         xml:space="preserve"
         y="16.190536"
         x="216.29587"
         sodipodi:linespacing="125%">
        <tspan
   id="tspan9179"
   sodipodi:role="line"
   x="216.29587"
   style="font-size:11px"
   y="16.190536">Начало | За нас | Въпроси | Контакти</tspan>
      </text>
      <text
         id="text3884"
         style="font-size:12px;font-family:Hibiscus;fill:#000000;line-height:125%"
         xml:space="preserve"
         y="-1586.4956"
         x="-952.57666"
         sodipodi:linespacing="125%">
        <tspan
   id="tspan3886"
   sodipodi:role="line"
   x="-952.57666"
   y="-1586.4956" />
      </text>
      <text
         id="text5015"
         y="-1269.3582"
         x="-251.12671"
         style="font-size:12px;font-family:WC Rhesus A Bta;fill:#000000"
         xml:space="preserve">
        <tspan
   id="tspan5017"
   y="-1269.3582"
   x="-251.12671"
   sodipodi:role="line" />
      </text>
      <text
         id="text9164"
         style="font-size:12px;font-family:Trebuchet MS;fill:#ffffff;line-height:125%"
         sodipodi:linespacing="125%"
         y="49.940536"
         x="717.06659"
         xml:space="preserve">
        <tspan
   id="tspan9166"
   y="49.940536"
   x="717.06659"
   style="font-size:11px"
   sodipodi:role="line">English</tspan>
      </text>
      <text
         id="text10096"
         style="font-size:12px;font-family:Trebuchet MS;fill:#ffffff;line-height:125%"
         xml:space="preserve"
         y="49.940536"
         x="635.56659"
         sodipodi:linespacing="125%">
        <tspan
   id="tspan10098"
   sodipodi:role="line"
   x="635.56659"
   style="font-size:11px"
   y="49.940536">Български</tspan>
      </text>
      <text
         id="text8973"
         style="font-size:12px;font-family:Trebuchet MS;fill:#ffffff;line-height:125%"
         xml:space="preserve"
         y="84.786629"
         x="236.82254"
         sodipodi:linespacing="125%">
        <tspan
   id="tspan8975"
   sodipodi:role="line"
   x="236.82254"
   y="84.786629">Артисти</tspan>
      </text>
      <text
         id="text9376"
         style="font-size:12px;font-family:Trebuchet MS;fill:#ffffff;line-height:125%"
         sodipodi:linespacing="125%"
         y="84.786629"
         x="334.86179"
         xml:space="preserve">
        <tspan
   id="tspan9378"
   y="84.786629"
   x="334.86179"
   sodipodi:role="line">Артисти</tspan>
      </text>
      <text
         id="text9380"
         style="font-size:12px;font-family:Trebuchet MS;fill:#ffffff;line-height:125%"
         sodipodi:linespacing="125%"
         y="84.786621"
         x="432.90097"
         xml:space="preserve">
        <tspan
   id="tspan9382"
   y="84.786621"
   x="432.90097"
   sodipodi:role="line">Артисти</tspan>
      </text>
      <text
         id="text9384"
         style="font-size:12px;font-family:Trebuchet MS;fill:#ffffff;line-height:125%"
         xml:space="preserve"
         y="84.786629"
         x="530.94012"
         sodipodi:linespacing="125%">
        <tspan
   id="tspan9386"
   sodipodi:role="line"
   x="530.94012"
   y="84.786629">Артисти</tspan>
      </text>
      <text
         id="text9388"
         y="250"
         x="228"
         xml:space="preserve"
         style="font-size:12px;font-family:Verdana;fill:#000000">
        <tspan
   id="tspan9390"
   sodipodi:role="line"
   x="228"
   y="250" />
      </text>
      <text
         id="text9392"
         style="font-size:22px;font-family:Trebuchet MS;fill:#27bacf;line-height:125%"
         inkscape:transform-center-x="-11"
         sodipodi:linespacing="125%"
         y="292.77948"
         x="416"
         xml:space="preserve">
        <tspan
   id="tspan9394"
   y="292.77948"
   x="416"
   sodipodi:role="line">Заглавие</tspan>
      </text>
      <text
         id="text9976"
         style="font-size:14px;font-family:Trebuchet MS;fill:#ffffff;line-height:125%;font-weight:bold"
         xml:space="preserve"
         y="332.41241"
         x="232.57445"
         sodipodi:linespacing="125%">
        <tspan
   id="tspan9978"
   sodipodi:role="line"
   x="232.57445"
   y="332.41241">Артисти</tspan>
      </text>
      <text
         id="text3759"
         style="font-size:12px;font-family:Trebuchet MS;fill:#333333;line-height:125%"
         sodipodi:linespacing="125%"
         y="584.19055"
         x="327.59326"
         xml:space="preserve">
        <tspan
   id="tspan3761"
   y="584.19055"
   x="327.59326"
   style="font-size:11px;fill:#333333"
   sodipodi:role="line">Начало | Артисти | Услуги | Новини | За нас | Въпроси | Контакти</tspan>
      </text>
      <text
         id="text3775"
         style="font-size:12px;font-family:Trebuchet MS;fill:#4d4d4d;line-height:125%"
         xml:space="preserve"
         y="609.69055"
         x="228.09326"
         sodipodi:linespacing="125%">
        <tspan
   id="tspan3777"
   sodipodi:role="line"
   x="228.09326"
   style="font-size:11px;fill:#4d4d4d"
   y="609.69055">2008 UnitedDJs Smolyan</tspan>
      </text>
      <text
         id="text3779"
         style="font-size:12px;font-family:Trebuchet MS;fill:#4d4d4d;line-height:125%"
         sodipodi:linespacing="125%"
         y="609.69055"
         x="709.60797"
         xml:space="preserve">
        <tspan
   id="tspan3781"
   y="609.69055"
   x="709.60797"
   style="font-size:11px;fill:#4d4d4d"
   sodipodi:role="line">xHTML | CSS</tspan>
      </text>
      <flowRoot
         id="flowRoot9398"
         xml:space="preserve"
         style="font-size:11px;font-family:Arial;fill:#333333;line-height:125%"
         transform="translate(195 36.993)">
        <flowRegion
   id="flowRegion9400">
          <rect
   id="rect9402"
   style="fill:#333333"
   height="293"
   width="366"
   y="271"
   x="222" />
        </flowRegion>
        <flowPara
   id="flowPara9678">   Lorem ipsum dolor sit amet, consectetuer adipiscing elit. Curabitur lorem risus, sagittis vitae, accumsan a, iaculis id, metus. </flowPara>
        <flowPara
   id="flowPara9680" />
        <flowPara
   id="flowPara9682">   Fusce venenatis ligula <flowSpan
   id="flowSpan9984"
   style="font-size:11px;font-family:Arial;fill:#d400aa;line-height:125%">in pede</flowSpan>. Vivamus nisi elit, nonummy id, facilisis non, blandit ac, dolor. Mauris tincidunt aliquam ante. Nunc metus. Aliquam justo lectus, iaculis a, auctor sed, congue in, nisl. </flowPara>
        <flowPara
   id="flowPara9684" />
        <flowPara
   id="flowPara9686">   Donec tempus quam quis neque. In commodo, dolor quis fermentum ullamcorper, urna massa volutpat massa, vitae mattis purus arcu nec nulla. Pellentesque ac turpis. Quisque vehicula porttitor odio. Etiam pharetra lacus sed velit imperdiet bibendum. Quisque aliquam, nulla ac scelerisque convallis, nisi ligula sagittis risus, at nonummy arcu urna pulvinar nibh. </flowPara>
        <flowPara
   id="flowPara9688" />
      </flowRoot>      <flowRoot
         id="flowRoot9986"
         style="font-size:12px;font-family:Arial;fill:#4d4d4d;line-height:125%"
         xml:space="preserve"
         transform="translate(-386 31.856)">
        <flowRegion
   id="flowRegion9988">
          <rect
   id="rect9990"
   style="fill:#4d4d4d"
   height="189"
   width="183"
   y="321"
   x="601" />
        </flowRegion>
        <flowPara
   id="flowPara9992">Donec tempus quam quis neque.</flowPara>
        <flowPara
   id="flowPara9996">Donec tempus quam quis neque.</flowPara>
        <flowPara
   id="flowPara10000">Donec tempus quam quis neque.</flowPara>
      </flowRoot>    </g>
    <path
       id="path5746"
       style="opacity:.52215;fill:#00ff00"
       inkscape:connector-curvature="0"
       transform="matrix(1.0902 0 0 1.0902 108.86 133.41)"
       d="m-762.43 384.89c-12.171-2.2861-24.327-4.6514-36.465-7.096 1.1085-0.85961 1.9473-2.1836 2.5307-3.9573 1.13 1.7754 3.1248 2.9427 5.9703 3.4633 2.417 0.44222 4.8346 0.88132 7.2528 1.3173 3.4816 0.62799 6.138-0.17671 7.9232-2.5774 2.0725 0.3156 4.1454 0.62893 6.2186 0.93997 0.52412-2.9111 0.97019-5.836 1.3377-8.7708-2.087-0.19977-4.1737-0.40183-6.2602-0.6062-0.78268-2.0674-2.3558-3.4029-4.6078-4.0216 1.6802-0.20368 3.1264-0.83013 4.241-1.905 1.3086-1.2563 2.07-2.9363 2.2861-5.0405 1.7903 0.0502 3.5807 0.0986 5.3712 0.14542 0.16759-3.0317 0.25169-6.0687 0.25172-9.1069-9.7286 0.28352-19.458 0.5167-29.188 0.6996-0.0121 2.3333-0.0846 4.667-0.21699 6.9978-0.10699 1.883 0.34262 3.4653 1.3971 4.8118 0.76568 0.96187 1.7913 1.7042 3.0901 2.1926-1.3701-0.10923-2.74-0.21945-4.1099-0.33067-0.90898-2.559-3.009-3.8651-6.1899-4.0444-2.049-0.11607-3.7633 0.29032-5.1999 1.1853-1.7895 1.1026-2.8255 2.8156-3.1491 5.179-0.27673 2.021-0.60343 4.0352-0.97965 6.0396-0.43994 2.3438 0.009 4.2598 1.3758 5.7978 1.0944 1.2441 2.6116 2.0965 4.6155 2.5385 2.3486 0.51769 4.3165 0.27765 5.8337-0.7936-0.96266 4.2246-2.1268 8.4014-3.4893 12.509-0.82002 2.4721-0.93185 4.4792-0.27349 6.1036 0.65837 1.6244 2.0863 2.8664 4.3273 3.6899 6.4495 2.3702 12.908 4.7165 19.376 7.0389 3.6412 1.3079 6.5527 1.1857 8.6904-0.49137 1.6393-1.3312 3.1589-4.0587 4.4312-8.1949 1.3909-4.5224 2.5945-9.0978 3.6089-13.713 0 0.00004-0.00001 0.00008-0.00001 0.00012zm-14.155 40.018c-8.5285-3.9506-17.036-7.9436-25.524-11.979-1.4164-0.67352-1.9342-1.427-1.5317-2.2392 0.46216-0.93247 1.4393-1.0654 2.9648-0.37858 2.848 1.2823 5.6981 2.5598 8.5505 3.8326 1.0232-2.1344 1.9971-4.293 2.9203-6.4738 0.29776-0.70399 0.59013-1.4102 0.87711-2.1184-2.0414-0.76341-4.082-1.5292-6.1216-2.2974-2.9671-1.1174-5.5927-1.464-7.8567-1.1285-0.82226 0.12213-1.5974 0.3351-2.3266 0.63704-2.2127 0.89007-3.8433 2.4932-5.0204 4.8714-1.234 2.493-1.5661 4.8392-0.9602 7.1835 0.73836 2.893 2.942 5.4294 6.7233 7.523 7.3598 4.0747 14.738 8.117 22.135 12.127 1.8218-3.1297 3.5464-6.3178 5.1702-9.5595zm4.5444-29.757c-0.0146 0.13778-0.0757 0.25393-0.12078 0.40421-0.3608 1.2019-1.2911 1.5846-2.8344 1.1501-6.267-1.7639-12.528-3.5495-18.782-5.3567-1.5398-0.44601-2.1172-1.1628-1.8051-2.187 0.31219-1.0243 1.2021-1.3344 2.7519-0.92429 6.2935 1.6649 12.593 3.3081 18.898 4.9296 1.3587 0.34929 1.9958 1.0183 1.8914 1.9841zm-67.191 90.665c0.28044-0.28012 0.46014-0.6395 0.55189-1.0732 0.22945-1.0098 0.44801-2.0185 0.65575-3.0259 0.99997-0.37535 1.9984-0.76156 2.9951-1.1586 0.22893-0.0936 0.43603-0.21484 0.61123-0.34302 0.4029-0.29477 0.66832-0.64359 0.74693-1.068 0.10856-0.42148 0.00094-0.81466-0.26641-1.1516-0.18258-0.22949-0.44332-0.39409-0.76275-0.52168-0.84265-0.30685-1.6812-0.61955-2.5155-0.93803 1.7907-1.3086 3.5543-2.6543 5.2894-4.0361 1.1458 1.3584 2.2928 2.7158 3.4412 4.0722 2.3722-1.8928 4.6928-3.8509 6.9584-5.8718-2.3086-2.4412-4.6128-4.8865-6.9126-7.3358 1.146 0.58929 2.3525 0.86994 3.6067 0.78499 1.8937-0.14234 3.683-1.0249 5.2661-2.5772 0.38918-0.38158 0.73498-0.77333 1.0372-1.1744 0.92706-1.2306 1.4427-2.5476 1.5455-3.9378 0.10082-1.5287-0.38942-2.9687-1.3652-4.3251 1.4896 0.80364 3.0414 1.0909 4.5949 0.82848 1.8701-0.3302 3.5329-1.3521 4.9535-3.0527 1.4205-1.7006 2.1088-3.4931 2.0617-5.3403-0.0544-1.625-0.73103-3.094-1.9714-4.4069 1.5442 0.69563 3.1041 0.90672 4.6148 0.56329 1.7696-0.39813 3.2898-1.4417 4.563-3.13 1.5061 0.96918 3.0132 1.937 4.5212 2.9033 1.7109-2.5064 3.3531-5.0599 4.9243-7.6572-8.4698-4.7936-16.914-9.6303-25.334-14.51-1.2191 1.9913-2.4895 3.9517-3.8093 5.8786-1.0662 1.5566-1.5002 3.1438-1.2944 4.8418 0.19351 1.497 0.91172 2.8938 2.1676 4.193-1.6433-0.78884-3.2235-1.0512-4.7489-0.79734-1.7264 0.30089-3.1575 1.1638-4.3728 2.6066-1.2154 1.4428-1.8046 2.9785-1.7684 4.6882 0.0414 1.4259 0.547 2.8197 1.5487 4.1651-1.4703-0.8386-2.9162-1.2246-4.3733-1.1289-1.1235 0.0824-2.1491 0.40813-3.0966 0.97913-0.52587 0.31698-1.0279 0.70964-1.5103 1.1787-1.3516 1.3142-2.1186 2.8096-2.2529 4.5143-0.0803 1.1341 0.15419 2.2682 0.68284 3.4125-1.0775-1.1592-2.154-2.3192-3.2295-3.4802-3.4242 3.0226-7.0017 5.8745-10.712 8.5407-1.8967 1.3629-3.8282 2.6773-5.7918 3.9412-3.1331 2.0167-6.3479 3.905-9.6332 5.6566 0.68624-1.7932 0.35662-3.7786-0.88849-5.9128-1.0342-1.7725-2.3182-2.978-3.8561-3.6828-1.9054-0.8846-3.9026-0.80495-6.0462 0.22428-1.721 0.82632-3.4602 1.611-5.2156 2.3525-0.11411 0.0484-0.22829 0.0967-0.34256 0.14473-2.184 0.91865-3.5303 2.3439-4.0602 4.3298-0.43473 1.5969-0.31266 3.3324 0.41905 5.2495 0.94906 2.4865 2.4193 4.0652 4.4343 4.6249-0.43147-0.0248-0.88171 0.0643-1.3109 0.22179-0.85841 0.31498-1.443 0.87945-1.7935 1.7459-0.37444 0.85409-0.41566 1.7742-0.0718 2.7098 0.34365 0.93559 0.9662 1.5886 1.8449 2.0064 0.86776 0.44233 1.7515 0.5308 2.6556 0.19783 0.90408-0.33297 1.5587-0.98867 1.9166-1.8823 0.34796-0.86874 0.30418-1.7321-0.0852-2.6496-0.38931-0.91759-0.99982-1.5986-1.8516-2.0019-0.21907-0.1037-0.4597-0.172-0.67683-0.23009 1.1105 0.18865 2.3441 0.10019 3.7325-0.27663-0.85726 1.9196-0.77148 4.2417 0.35802 6.9048 0.95935 2.262 1.9217 4.5228 2.8871 6.7823 1.2874 3.0128 3.2437 4.7442 5.9072 5.1164 0.21237 0.0296 0.42908 0.0506 0.65005 0.0629 0.87789 1.9038 1.7579 3.8065 2.6402 5.7084 2.7244-1.1694 5.4151-2.4121 8.0691-3.7258-0.98426-1.8509-1.9664-3.7028-2.9465-5.5559 1.0778-1.4936 1.421-3.1474 1.091-4.9387 0.72245 0.90449 1.4944 1.6339 2.3597 2.0535 1.4738 0.70171 3.032 0.60147 4.5957-0.27846 1.8423-1.0367 3.6637-2.1097 5.463-3.2182 0.24714 0.0629 0.53117 0.10297 0.8494 0.0617 1.0495-0.12982 2.1012-0.2711 3.1549-0.42394 0.58148 0.76427 1.164 1.5278 1.7476 2.2906 0.26412 0.45754 0.61878 0.69185 1.1014 0.77329 0.46459 0.0932 0.9194-0.005 1.34-0.28443 0.11452-0.0761 0.21765-0.11436 0.3114-0.20735 0 0.00027-0.00001 0.00055-0.00001 0.00083zm-1.153-0.98293c-0.066 0.0198-0.16207-0.0316-0.24478-0.18741-0.76713-1.0066-1.5327-2.0144-2.2967-3.0232-1.3776 0.16183-2.7512 0.30389-4.1201 0.42641 0.0478-0.0625 0.0955-0.12507 0.1431-0.18764 0.7711-0.96166 1.5279-1.9294 2.2703-2.9028-0.34955-0.60073-0.69955-1.2012-1.05-1.8014 0.0199 0.003 0.0399 0.007 0.0599 0.01-3.4734-4.9404-6.9309-9.8915-10.373-14.853 1.3465-0.88652 2.6776-1.7966 3.9925-2.7297 3.6131 4.8387 7.2416 9.6661 10.886 14.482 0.13401 0.17717 0.26804 0.35432 0.40209 0.53145 0.41809-0.41811 0.83342-0.83823 1.246-1.2603 0.10925-0.12774 0.15802-0.19177 0.18693-0.18818 0.0619-0.0206 0.128-0.0114 0.14702 0.0474 0.01 0.11328-0.005 0.21335-0.0138 0.26832 0.0551 1.3363 0.0944 2.6777 0.11761 4.0238 1.1636 0.4495 2.3356 0.88765 3.5157 1.3143 0.17743 0.088 0.29001 0.14883 0.29001 0.14883 0.0182 0.0593-0.10592 0.15033-0.33312 0.24336-1.2904 0.52811-2.584 1.0378-3.8804 1.5291-0.25262 1.2713-0.52252 2.5449-0.80983 3.8203-0.0476 0.19597-0.0878 0.2818-0.13523 0.28994-0.00007-0.00039-0.00013-0.00079-0.0002-0.001zm72.539-135.5c-0.0196 1.9355-0.0737 3.8702-0.16195 5.803-1.8047-0.0303-3.6093-0.0624-5.4138-0.0962 0.023 0.33493 0.0516 0.64678 0.0339 0.98082-0.096 1.8173-0.68238 3.285-1.7117 4.3711-1.2658 1.3432-3.1284 1.914-5.5464 1.7472-2.4516-0.16894-4.9029-0.34105-7.3539-0.51632-2.4176-0.17214-4.1418-0.94456-5.1879-2.2564-0.85161-1.0612-1.23-2.3666-1.1408-3.9436 0.10776-1.9052 0.17589-3.8123 0.20414-5.7197 8.7593-0.0826 17.519-0.20594 26.278-0.37001zm-1.476 20.339c-0.24928 1.8404-0.52979 3.6766-0.84138 5.5075-1.8973-0.26666-3.7943-0.53523-5.691-0.8057-1.3337 2.4635-3.6953 3.3452-6.9904 2.7843-2.4224-0.41214-4.8443-0.82741-7.2655-1.2458-2.3882-0.41297-4.027-1.3523-4.9372-2.7619-0.7417-1.141-0.98834-2.4776-0.74252-4.0382 0.0565-0.35873 0.13261-0.68793 0.24059-1.0221-2.1076-0.26362-4.2148-0.5296-6.3218-0.79793 0.17996-1.1929 0.34359-2.3882 0.49081-3.5856 0.0846-0.68808-0.18427-1.0549-0.74868-1.1068-0.56456-0.0517-0.8666 0.25798-0.9503 0.93704-0.37901 3.075-0.86766 6.1368-1.4647 9.1762-0.17803 0.90636 0.0117 1.41 0.62693 1.523 0.61502 0.11323 1.0441-0.30598 1.2339-1.2766 0.27665-1.4149 0.53015-2.8346 0.76037-4.2581 1.6639 0.2297 3.3281 0.45792 4.9925 0.68466-0.11582 0.72006-0.23739 1.4392-0.36468 2.1573-0.47795 2.6963-1.4826 4.5151-2.8645 5.4198-1.1478 0.75167-2.6409 0.91881-4.477 0.5328-1.6641-0.34924-2.9042-1.0386-3.7632-2.0282-1.1061-1.2267-1.423-2.8137-1.0479-4.8149 0.38028-2.0288 0.71042-4.0675 0.98998-6.1131 0.27577-2.0179 1.0811-3.4522 2.5235-4.3277 1.1318-0.71557 2.5313-1.0403 4.228-0.92777 2.9059 0.19253 4.652 1.5382 5.1087 4.0488 5.2256 0.47902 10.453 0.94362 15.681 1.3938 3.2913 0.28357 5.2705 1.6877 5.8372 4.3277 1.9186 0.20756 3.8375 0.41318 5.7566 0.61685l0.00057 0.00075zm-22.874 63.832c-1.0096 1.6316-2.0478 3.2454-3.1137 4.8404-1.5289-0.95928-3.0568-1.92-4.5838-2.8821-0.15342 0.29844-0.31507 0.61685-0.50305 0.89367-1.0219 1.5049-2.2826 2.4572-3.7253 2.8541-1.7779 0.4945-3.6671 0.0196-5.6504-1.3737-2.0108-1.4126-4.0197-2.8278-6.0268-4.2455-1.9796-1.3984-3.0561-2.9508-3.2727-4.6148-0.17964-1.3491 0.17196-2.6622 1.0645-3.966 1.0783-1.5752 2.124-3.1726 3.136-4.7907 7.5373 4.4627 15.096 8.8909 22.675 13.284 0.00019 0.00011 0.00039 0.00023 0.00059 0.00034zm-31.54 37.208c-1.4449 1.2629-2.9117 2.5004-4.3996 3.7116-2.7852-3.2266-5.5631-6.4593-8.3336-9.6981 1.1645 2.2538 2.3077 4.5215 3.4294 6.8028-1.3726 1.0894-2.7632 2.1561-4.171 3.1995-0.11708-0.29328-0.23457-0.58632-0.35246-0.87914-0.0169-0.21225-0.0341-0.42437-0.0517-0.63635-0.0115-0.38168-0.12029-0.71894-0.33903-0.9944-0.13924-0.17684-0.32729-0.29077-0.5285-0.38448-1.0266-2.3518-2.0778-4.6894-3.1531-7.0124-1.7057 0.83874-3.5591-0.0363-5.5222-2.5706-1.0202-1.317-2.0392-2.6349-3.0571-3.9537 1.2999-0.95392 2.5831-1.9305 3.8488-2.9292 1.019 1.229 2.039 2.4571 3.0601 3.6843 0.62521 0.75117 1.1773 0.98079 1.5924 0.6487 0.37068-0.29652 0.24171-0.83882-0.40398-1.5983-1.0341-1.2163-2.0671-2.4335-3.0991-3.6516 1.255-1.012 2.4923-2.046 3.7109-3.1011 5.893 6.4812 11.816 12.935 17.77 19.363l0.00021-0.00018zm-36.697 24.257c-1.675 0.80802-3.3644 1.5876-5.0673 2.3382-0.82267-1.7303-1.6436-3.4614-2.4626-5.1933-0.87033 0.0766-1.6704-0.0153-2.3976-0.27032-1.6079-0.56383-2.8534-1.9238-3.7794-4.0303-0.98885-2.2494-1.9747-4.5002-2.9575-6.7522-0.96945-2.2212-1.1234-4.0913-0.44985-5.6264 0.0401-0.0922 0.0826-0.18279 0.12755-0.27169 0.56291-1.1126 1.4998-1.9635 2.8294-2.5683 0.33006-0.15014 0.68142-0.28392 1.0195-0.37782-0.94151-1.9038-1.8808-3.8086-2.818-5.7144 1.0921-0.50584 2.1775-1.0272 3.2558-1.5637 0.61957-0.30831 0.7768-0.73466 0.50883-1.234-0.26804-0.49948-0.69259-0.58075-1.3041-0.27668-2.328 1.1576-4.6896 2.2432-7.0806 3.2537-0.45231 0.19179-0.90583 0.38091-1.3605 0.56738-0.85096 0.34895-1.1658 0.78389-0.92177 1.3598 0.24393 0.57581 0.82846 0.70411 1.7398 0.3295 0.42526-0.17482 0.84951-0.35193 1.2727-0.53134 0.90033-0.38059 1.7965-0.77164 2.6884-1.173 0.72488 1.5152 1.4511 3.0297 2.1788 4.5436-0.6637 0.29947-1.3298 0.59347-1.9981 0.88196-0.31221 0.13476-0.61779 0.25519-0.91638 0.36151-2.0991 0.74895-3.8471 0.79991-5.1718 0.22404-1.2568-0.54619-2.216-1.7021-2.9025-3.448-0.62207-1.5823-0.72913-2.9966-0.37729-4.2572 0.41325-1.5971 1.5584-2.7322 3.4237-3.5172 0.10564-0.0445 0.21122-0.0891 0.31673-0.13384 1.7874-0.75512 3.558-1.5543 5.31-2.3961 1.8303-0.87941 3.4683-0.99777 4.9928-0.27728 1.22 0.54968 2.2624 1.5378 3.1047 3.0148 1.4425 2.5296 1.2845 4.728-0.55555 6.4923 2.4822 4.6227 4.9775 9.2385 7.4857 13.848 1.5789 2.9013 1.499 5.3268-0.39283 7.2562 0.88461 1.7149 1.771 3.4289 2.6592 5.1421 0.0001 0.0002 0.00019 0.0004 0.00029 0.00061zm19.587-11.976c0.21509-0.96234 0.42017-1.9236 0.61532-2.8836 0.9556-0.35473 1.9098-0.71951 2.8625-1.0943-0.90705-0.3918-1.809-0.79017-2.7059-1.195-0.00004-0.94947-0.008-1.8966-0.0244-2.8414-0.71204 0.71565-1.4321 1.4255-2.1602 2.1293-0.94451-0.24247-1.8839-0.49319-2.818-0.75206 0.42657 0.85025 0.85127 1.7016 1.2741 2.554-0.59152 0.77884-1.1922 1.5541-1.8019 2.3255 1.0202-0.14438 2.0423-0.29976 3.066-0.46622 0.56315 0.74199 1.1271 1.4834 1.6918 2.2243 0.00021-0.00013 0.00042-0.00027 0.00063-0.0004zm-45.728 17.864c2.129-0.61914 3.7018-1.7235 4.6941-3.2834 1.1972-1.9154 1.246-4.2437 0.23337-6.9323-0.86601-2.2992-1.729-4.5996-2.5889-6.901-1.0055-2.6912-2.5208-4.4641-4.4698-5.3515-1.599-0.71337-3.2656-0.79627-5.0776-0.27793-1.7188 0.49169-2.9748 1.3172-3.7864 2.5165-0.81158 1.1993-1.179 2.7721-1.0811 4.7306-0.75757-1.5546-1.7781-2.7005-3.0631-3.445-1.5227-0.86677-3.175-1.1124-5.0306-0.77334-1.8557 0.33904-3.288 1.1484-4.3486 2.4901-0.68989 0.88727-1.1372 1.9477-1.3382 3.1744-0.2481-1.549-0.49493-3.0982-0.74047-4.6476-5.9934 0.80269-12.04 1.2081-18.082 1.2081-0.53715 0-1.0744-0.003-1.6115-0.01 0.0682 5.6496 0.15334 11.299 0.25544 16.949 0.0368 2.0704 0.48419 3.7161 1.3561 4.9242 0.009 0.0121 0.0175 0.0242 0.0264 0.0362 0.97544 1.3091 2.4003 1.9485 4.1942 1.901 5.921-0.1568 11.831-0.64303 17.695-1.4539-0.25853-1.5474-0.51579-3.0951-0.77176-4.6429 0.62218 1.1096 1.4755 1.9976 2.5527 2.6181 1.6525 0.93547 3.5851 1.2056 5.7631 0.7978 2.178-0.40775 3.8502-1.3525 4.9895-2.8074 0.97677-1.2675 1.4083-2.808 1.3058-4.5734 0.67287 1.3974 1.5733 2.4599 2.7797 3.1765 1.7392 1.0331 3.8326 1.249 6.144 0.57677h0.00006zm76.63-51.845c-1.1667 1.396-2.5161 2.2185-3.9913 2.4702-1.8186 0.31541-3.6512-0.34505-5.486-1.9289-1.8601-1.6057-3.7182-3.2138-5.5741-4.8243-1.8306-1.5885-2.7472-3.2403-2.7974-4.9173-0.0448-1.36 0.43536-2.6314 1.4528-3.8399 1.0175-1.2085 2.2034-1.9161 3.5798-2.1404 1.6963-0.28141 3.5342 0.26886 5.4902 1.7002 1.983 1.4512 3.9679 2.8999 5.9547 4.346 1.9597 1.4263 2.9934 3.0346 3.0447 4.8299 0.0458 1.4555-0.50674 2.9085-1.6734 4.3045zm-10.671 11.553c-1.3001 1.2741-2.7249 1.9588-4.2178 2.0628-1.8412 0.13348-3.5989-0.70594-5.2673-2.4642-1.6914-1.7826-3.3805-3.5673-5.0672-5.3542-1.6637-1.7625-2.4117-3.4971-2.2951-5.1708 0.0904-1.3576 0.69434-2.5748 1.826-3.6757 0.49224-0.47886 1.0011-0.85491 1.5339-1.1342 0.69221-0.36276 1.425-0.56233 2.2113-0.61105 1.7153-0.11114 3.4894 0.61867 5.2938 2.2368 1.8294 1.6406 3.6609 3.2788 5.4946 4.9146 1.8086 1.6136 2.6778 3.3163 2.5503 5.1084-0.0683 1.0004-0.40359 1.9558-1.0304 2.8708-0.28371 0.4141-0.62707 0.81977-1.0322 1.2168zm-33.334 25.013c-2.206 1.2406-4.2242 0.23548-6.0129-2.9296-2.5408-4.4958-5.0691-8.9984-7.585-13.508 1.4253-0.75059 2.8377-1.5265 4.2362-2.3272 2.6445 4.3705 5.301 8.734 7.9693 13.09 0.51035 0.83342 1.0198 1.0948 1.5123 0.80728 0.43961-0.25666 0.3689-0.79891-0.16058-1.6435-2.706-4.3168-5.4003-8.6407-8.0829-12.972 1.4013-0.82178 2.7883-1.6685 4.16-2.5395 3.5908 5.3641 7.2 10.716 10.828 16.056-0.38947 0.44677-0.78212 0.89192-1.178 1.3354-0.44617 0.46456-0.62579 0.92932-0.57548 1.3846-1.6814 1.1133-3.3852 2.1954-5.1105 3.2452zm-33.071 13.891c-1.8486 0.53705-3.501 0.38663-4.8466-0.39481-1.4019-0.82742-2.3736-2.2921-2.9445-4.3649-0.3428-1.2447-0.68474-2.4896-1.0258-3.7347 1.6297-0.40109 3.2526-0.82993 4.8676-1.2864 0.54827 1.7629 1.0983 3.5253 1.65 5.2871 0.23362 0.74597 0.6583 1.0256 1.2269 0.86046 0.56865-0.16513 0.71562-0.61035 0.47339-1.3536-1.097-3.3654-2.1876-6.7328-3.2718-10.102-0.32306-1.0047-0.75013-1.4273-1.3236-1.2626-0.57356 0.16468-0.71728 0.7767-0.38954 1.8414 0.33487 1.0878 0.6704 2.1755 1.0066 3.2629-1.5983 0.44928-3.2044 0.87124-4.8172 1.2657-0.0802-0.29467-0.1604-0.58935-0.24053-0.88404-0.77869-2.8669-0.77465-5.0569-0.0702-6.5478 0.58484-1.2386 1.7027-2.0744 3.377-2.5539 1.5174-0.43451 2.8947-0.3597 4.1611 0.22202 1.5634 0.71282 2.7816 2.1942 3.607 4.4726 0.83692 2.3099 1.6769 4.6187 2.5199 6.9265 0.83148 2.2763 0.79264 4.1875-0.1671 5.7065-0.77458 1.2338-2.0449 2.1319-3.7928 2.6397 0.00004-0.00002 0.00009-0.00003 0.00013-0.00004zm-15.081 3.5904c-1.7884 0.33431-3.3524 0.10988-4.6503-0.63487-1.6033-0.91412-2.5963-2.5899-3.0035-4.9793-0.41285-2.4224-0.82255-4.8453-1.2291-7.2687-0.4008-2.3904-0.0567-4.2478 0.97212-5.5732 0.83108-1.0774 2.011-1.7524 3.5648-2.0367 1.5538-0.28432 2.9185-0.0751 4.1227 0.62795 1.4871 0.86263 2.5544 2.4566 3.1521 4.8053 0.60603 2.3812 1.2152 4.7615 1.8274 7.1412 0.60365 2.3472 0.37773 4.2454-0.72554 5.6629-0.89106 1.1519-2.2423 1.9211-4.0307 2.2554zm-9.0659 1.4252c-5.289 0.67559-10.612 1.0851-15.945 1.2249-2.5304 0.0664-3.8894-1.7654-3.9911-5.3998-0.0519-1.8551-0.10191-3.7102-0.15012-5.5654-0.086-3.3075-0.16609-6.6151-0.2404-9.9228 0.0801 0.00014 0.16027 0.00021 0.2404 0.00021 1.5436 0.00001 3.0875-0.0262 4.6307-0.0784 0.29637 5.1001 0.60654 10.2 0.93051 15.298 0.0625 0.97536 0.34688 1.4462 0.91675 1.4222 0.48844-0.0206 0.69963-0.53389 0.62636-1.5281-0.37451-5.0814-0.73532-10.164-1.0824-15.246 1.5585-0.0686 3.116-0.16366 4.6716-0.28517 0.52113 5.0821 1.056 10.163 1.6045 15.242 0.10442 0.97174 0.43054 1.4278 0.97838 1.3804 0.50723-0.0438 0.71846-0.56814 0.60117-1.5582-0.59951-5.0598-1.1854-10.121-1.7577-15.184 1.6057-0.14219 3.209-0.31251 4.8089-0.51083 1.0269 6.9069 2.0792 13.81 3.1569 20.71 0-0.00001 0.00001-0.00001 0.00001-0.00001zm133.99-148.56c0.0349-0.65231-0.42703-0.96518-1.3261-0.98357-3.4146-0.07-6.8289-0.14621-10.243-0.22856-0.89897-0.0211-1.3452 0.24571-1.3785 0.84337-0.0334 0.59775 0.37918 0.9315 1.2778 0.9645 3.4128 0.12549 6.826 0.24483 10.239 0.35801 0.89878 0.0292 1.3956-0.30123 1.4305-0.95375zm-1.5976 15.396c0.0997-0.64547-0.3287-1.0028-1.2214-1.1107-3.3906-0.41006-6.7803-0.8262-10.169-1.2484-0.89238-0.11064-1.3629 0.11049-1.4557 0.70202-0.0927 0.59154 0.28451 0.96476 1.1753 1.0871 3.3833 0.46489 6.7675 0.92372 10.153 1.3765 0.89138 0.11864 1.4187-0.16096 1.5184-0.80653zm-24.815 62.993c0.36736-0.54019 0.15806-1.0828-0.60188-1.5636-2.8862-1.8258-5.7691-3.6567-8.6487-5.4928-0.75814-0.48348-1.3007-0.4523-1.6386 0.042-0.33784 0.49431-0.13475 0.96056 0.61729 1.4535 2.8562 1.8722 5.7159 3.7392 8.5789 5.6012 0.75379 0.4903 1.3256 0.4997 1.6929-0.0404zm-9.3294 12.349c0.41931-0.50105 0.23732-1.0284-0.47096-1.5824-2.69-2.1044-5.3761-4.2136-8.0583-6.3275-0.70626-0.55657-1.2236-0.61037-1.6089-0.1521-0.38528 0.4583-0.25539 0.97281 0.44376 1.5383 2.6554 2.1476 5.3147 4.2904 7.9779 6.4286 0.70118 0.56301 1.2973 0.59612 1.7165 0.0952zm-10.423 11.269c0.46698-0.45703 0.33832-0.99994-0.31153-1.6215-2.4681-2.3606-4.9318-4.7257-7.3912-7.0952-0.64751-0.62392-1.157-0.72876-1.5856-0.31112-0.42868 0.41765-0.35054 0.94253 0.28903 1.5746 2.4291 2.4005 4.8625 4.7967 7.3004 7.1885 0.64184 0.6298 1.2318 0.72183 1.6989 0.26469zm-43.719 30.08c0.59409-0.2726 0.69563-0.84539 0.29369-1.6497-1.5267-3.0548-3.0478-6.1122-4.5632-9.1724-0.39896-0.80577-0.87912-1.0597-1.4234-0.81161-0.54442 0.24819-0.61139 0.75205-0.22277 1.5629 1.476 3.0794 2.9578 6.1563 4.4452 9.2304 0.39157 0.80944 0.87624 1.1131 1.4705 0.84046zm-35.838 11.343c0.64209-0.11957 0.83745-0.64212 0.6438-1.5202-0.73529-3.335-1.4646-6.6713-2.1878-10.009-0.19001-0.87885-0.55524-1.2495-1.1441-1.1413-0.58886 0.10822-0.81619 0.5877-0.63681 1.4688 0.68111 3.3464 1.3682 6.6917 2.0614 10.036 0.18205 0.88057 0.62122 1.2854 1.2635 1.1658zm62.361-27.039c-1.7046-2.2094-3.406-4.4213-5.104-6.6356 1.0398 0.67836 2.0832 0.98765 3.1548 0.88131 0.79618 1.7961 1.5778 3.6007 2.3446 5.4136-0.0246 0.018-0.0448 0.0329-0.0694 0.0509-0.11521 0.0845-0.23542 0.17236-0.32546 0.2891-0.00017 0.00023-0.00034 0.00046-0.00051 0.00069zm-41.862 8.03c-0.52619 0.19364-1.0417 0.19596-1.5572-0.056-0.5155-0.25192-0.84759-0.66799-1.0554-1.2162-0.2078-0.54822-0.23244-1.0714-0.019-1.5828 0.21345-0.51139 0.57377-0.86829 1.0842-1.0557 0.51043-0.18743 1.0256-0.15204 1.5378 0.0926 0.51223 0.24459 0.89138 0.6365 1.1151 1.1785 0.22357 0.54199 0.22695 1.0792 0.0167 1.5979-0.21022 0.5187-0.59614 0.84813-1.1223 1.0418z" />
    <g
       id="g3110"
       transform="translate(116 12)">
      <path
         id="path6821"
         sodipodi:rx="116"
         sodipodi:ry="116"
         style="opacity:.5;filter:url(#filter6823);fill:#000000"
         sodipodi:type="arc"
         d="m -282,175.15491 c 0,64.06503 -51.93497,116 -116,116 -64.06503,0 -116,-51.93497 -116,-116 0,-64.06503 51.93497,-116.000003 116,-116.000003 64.06503,0 116,51.934973 116,116.000003 z"
         transform="matrix(2.3147 0 0 2.3147 1279.6 148.54)"
         sodipodi:cy="175.15491"
         sodipodi:cx="-398" />
      <g
         id="g5929">
        <g
           id="g4355"
           transform="translate(96,-50)"
           inkscape:export-xdpi="40"
           inkscape:export-ydpi="40">
          <path
             id="path3513"
             sodipodi:rx="401.42856"
             sodipodi:ry="401.42856"
             style="fill:#13221d"
             sodipodi:type="arc"
             d="m 1125.7143,676.64789 c 0,221.70287 -179.72572,401.42851 -401.42859,401.42851 -221.70288,0 -401.42856,-179.72564 -401.42856,-401.42851 0,-221.70287 179.72568,-401.42856 401.42856,-401.42856 221.70287,0 401.42859,179.72569 401.42859,401.42856 z"
             transform="matrix(.66512 0 0 .66512 -214.6 149.45)"
             sodipodi:cy="676.64789"
             sodipodi:cx="724.28571" />
          <path
             id="path3539"
             sodipodi:rx="401.42856"
             sodipodi:ry="401.42856"
             style="fill:#000000"
             sodipodi:type="arc"
             d="m 1125.7143,676.64789 c 0,221.70287 -179.72572,401.42851 -401.42859,401.42851 -221.70288,0 -401.42856,-179.72564 -401.42856,-401.42851 0,-221.70287 179.72568,-401.42856 401.42856,-401.42856 221.70287,0 401.42859,179.72569 401.42859,401.42856 z"
             transform="matrix(.61032 0 0 .61032 -174.9 186.53)"
             sodipodi:cy="676.64789"
             sodipodi:cx="724.28571" />
          <path
             id="path3529"
             sodipodi:rx="401.42856"
             sodipodi:ry="401.42856"
             style="fill:#374641"
             sodipodi:type="arc"
             d="m 1125.7143,676.64789 c 0,221.70287 -179.72572,401.42851 -401.42859,401.42851 -221.70288,0 -401.42856,-179.72564 -401.42856,-401.42851 0,-221.70287 179.72568,-401.42856 401.42856,-401.42856 221.70287,0 401.42859,179.72569 401.42859,401.42856 z"
             transform="matrix(.59039 0 0 .59039 -160.47 200.02)"
             sodipodi:cy="676.64789"
             sodipodi:cx="724.28571" />
          <path
             id="path3533"
             sodipodi:rx="401.42856"
             sodipodi:ry="401.42856"
             style="filter:url(#filter3535);fill:#000000"
             sodipodi:type="arc"
             d="m 1125.7143,676.64789 c 0,221.70287 -179.72572,401.42851 -401.42859,401.42851 -221.70288,0 -401.42856,-179.72564 -401.42856,-401.42851 0,-221.70287 179.72568,-401.42856 401.42856,-401.42856 221.70287,0 401.42859,179.72569 401.42859,401.42856 z"
             transform="matrix(.52687 0 0 .52687 -114.46 243)"
             sodipodi:cy="676.64789"
             sodipodi:cx="724.28571" />
          <path
             id="path3517"
             sodipodi:rx="401.42856"
             sodipodi:ry="401.42856"
             style="stroke:#000000;stroke-width:5.694;fill:url(#linearGradient3199)"
             sodipodi:type="arc"
             d="m 1125.7143,676.64789 c 0,221.70287 -179.72572,401.42851 -401.42859,401.42851 -221.70288,0 -401.42856,-179.72564 -401.42856,-401.42851 0,-221.70287 179.72568,-401.42856 401.42856,-401.42856 221.70287,0 401.42859,179.72569 401.42859,401.42856 z"
             transform="matrix(.52687 0 0 .52687 -114.46 243)"
             sodipodi:cy="676.64789"
             sodipodi:cx="724.28571" />
          <path
             id="path3527"
             sodipodi:rx="401.42856"
             sodipodi:ry="401.42856"
             style="fill:url(#linearGradient3199)"
             sodipodi:type="arc"
             d="m 1125.7143,676.64789 c 0,221.70287 -179.72572,401.42851 -401.42859,401.42851 -221.70288,0 -401.42856,-179.72564 -401.42856,-401.42851 0,-221.70287 179.72568,-401.42856 401.42856,-401.42856 221.70287,0 401.42859,179.72569 401.42859,401.42856 z"
             transform="matrix(.52687 0 0 .52687 -114.46 243)"
             sodipodi:cy="676.64789"
             sodipodi:cx="724.28571" />
          <path
             id="path3461"
             sodipodi:rx="401.42856"
             sodipodi:ry="401.42856"
             style="fill:url(#linearGradient3511)"
             sodipodi:type="arc"
             d="m 1125.7143,676.64789 c 0,221.70287 -179.72572,401.42851 -401.42859,401.42851 -221.70288,0 -401.42856,-179.72564 -401.42856,-401.42851 0,-221.70287 179.72568,-401.42856 401.42856,-401.42856 221.70287,0 401.42859,179.72569 401.42859,401.42856 z"
             transform="matrix(.47580 0 0 .47580 -77.473 277.56)"
             sodipodi:cy="676.64789"
             sodipodi:cx="724.28571" />
          <g
             id="g3500"
             clip-path="url(#clipPath3507)">
            <path
               id="rect3489"
               sodipodi:nodetypes="cccc"
               style="opacity:.57911;filter:url(#filter3492);fill:#ffffff"
               inkscape:connector-curvature="0"
               d="m267.14 598.36 33 256h-66l33-256z" />
            <path
               id="rect3473"
               sodipodi:nodetypes="cccc"
               style="opacity:.59810;filter:url(#filter3480);fill:#ffffff"
               inkscape:connector-curvature="0"
               d="m-73 489.5 347.49 110-347.49 110v-220z" />
            <path
               id="rect3475"
               sodipodi:nodetypes="cccc"
               style="opacity:.53165;filter:url(#filter3485);fill:#ffffff"
               inkscape:connector-curvature="0"
               d="m644.49 462.81v269.38l-387.49-134.68 387.49-134.7z" />
          </g>
          <path
             id="path3451"
             style="opacity:.58544;filter:url(#filter3453);fill:#2e453d"
             sodipodi:type="inkscape:offset"
             d="m724.28 258.47c-230.65 0-418.19 187.54-418.19 418.19s187.54 418.16 418.19 418.16 418.19-187.51 418.19-418.16-187.54-418.19-418.19-418.19z"
             inkscape:original="M 724.28125 275.21875 C 502.69269 275.21875 322.84375 455.06769 322.84375 676.65625 C 322.84375 898.24481 502.69269 1078.0625 724.28125 1078.0625 C 945.86981 1078.0625 1125.7188 898.24481 1125.7188 676.65625 C 1125.7188 455.06769 945.86981 275.21875 724.28125 275.21875 z "
             transform="matrix(.27294 0 0 .27294 69.955 414.32)"
             inkscape:radius="16.741716" />
          <path
             id="path2571"
             sodipodi:rx="401.42856"
             sodipodi:ry="401.42856"
             style="fill:url(#radialGradient3205)"
             sodipodi:type="arc"
             d="m 1125.7143,676.64789 c 0,221.70287 -179.72572,401.42851 -401.42859,401.42851 -221.70288,0 -401.42856,-179.72564 -401.42856,-401.42851 0,-221.70287 179.72568,-401.42856 401.42856,-401.42856 221.70287,0 401.42859,179.72569 401.42859,401.42856 z"
             transform="matrix(.27402 0 0 .27402 68.673 414.09)"
             sodipodi:cy="676.64789"
             sodipodi:cx="724.28571" />
          <path
             id="path3343"
             sodipodi:rx="37.857143"
             sodipodi:ry="37.857143"
             style="filter:url(#filter3417);fill:url(#radialGradient3207)"
             sodipodi:type="arc"
             d="m 165.71428,494.50504 c 0,20.90792 -16.94922,37.85714 -37.85714,37.85714 -20.90792,0 -37.857144,-16.94922 -37.857144,-37.85714 0,-20.90793 16.949224,-37.85715 37.857144,-37.85715 20.90792,0 37.85714,16.94922 37.85714,37.85715 z"
             transform="matrix(.79359 0 0 .79359 164.22 138.16)"
             sodipodi:cy="494.50504"
             sodipodi:cx="127.85714" />
          <path
             id="path3498"
             style="opacity:.2;stroke:#ffffff;stroke-width:6.3052;fill:none"
             sodipodi:type="inkscape:offset"
             d="m724.28 278.69c-219.71 0-397.97 178.26-397.97 397.97s178.26 397.94 397.97 397.94 397.97-178.22 397.97-397.94c0-219.71-178.26-397.97-397.97-397.97z"
             inkscape:original="M 724.28125 275.21875 C 502.69269 275.21875 322.84375 455.06769 322.84375 676.65625 C 322.84375 898.24481 502.69269 1078.0625 724.28125 1078.0625 C 945.86981 1078.0625 1125.7188 898.24481 1125.7188 676.65625 C 1125.7188 455.06769 945.86981 275.21875 724.28125 275.21875 z "
             transform="matrix(.47580 0 0 .47580 -77.473 277.56)"
             inkscape:radius="-3.465766" />
          <path
             id="path3345"
             sodipodi:rx="37.857143"
             sodipodi:ry="37.857143"
             style="filter:url(#filter3413);fill:url(#radialGradient3209)"
             sodipodi:type="arc"
             d="m 165.71428,494.50504 c 0,20.90792 -16.94922,37.85714 -37.85714,37.85714 -20.90792,0 -37.857144,-16.94922 -37.857144,-37.85714 0,-20.90793 16.949224,-37.85715 37.857144,-37.85715 20.90792,0 37.85714,16.94922 37.85714,37.85715 z"
             transform="matrix(.43287 0 0 .43287 266.91 346.58)"
             sodipodi:cy="494.50504"
             sodipodi:cx="127.85714" />
          <path
             id="path3580"
             style="filter:url(#filter3588);fill:url(#radialGradient3211)"
             sodipodi:type="inkscape:offset"
             d="m267.16 371.97c-125.71 0-227.54 101.83-227.54 227.53s101.83 227.53 227.53 227.53 227.53-101.83 227.53-227.53-101.83-227.53-227.53-227.53zm0 6.5625c121.87 0 220.97 99.095 220.97 220.97 0 121.87-99.095 220.97-220.97 220.97-121.87 0-220.97-99.095-220.97-220.97 0-121.87 99.095-220.97 220.97-220.97z"
             inkscape:original="M 267.15625 371.1875 C 141.02838 371.1875 38.84375 473.37213 38.84375 599.5 C 38.84375 725.62787 141.02838 827.8125 267.15625 827.8125 C 393.28412 827.8125 495.46875 725.62787 495.46875 599.5 C 495.46875 473.37213 393.28412 371.1875 267.15625 371.1875 z M 267.15625 379.3125 C 388.60335 379.3125 487.34375 478.0529 487.34375 599.5 C 487.34375 720.9471 388.60335 819.6875 267.15625 819.6875 C 145.70915 819.6875 46.96875 720.9471 46.96875 599.5 C 46.96875 478.0529 145.70915 379.3125 267.15625 379.3125 z "
             transform="matrix(-.98496 0 0 -.98496 530.29 1190)"
             inkscape:radius="-0.78732336" />
          <path
             id="path3570"
             style="filter:url(#filter3584);fill:url(#radialGradient3213)"
             sodipodi:type="inkscape:offset"
             d="m267.16 371.97c-125.71 0-227.54 101.83-227.54 227.53s101.83 227.53 227.53 227.53 227.53-101.83 227.53-227.53-101.83-227.53-227.53-227.53zm0 6.5625c121.87 0 220.97 99.095 220.97 220.97 0 121.87-99.095 220.97-220.97 220.97-121.87 0-220.97-99.095-220.97-220.97 0-121.87 99.095-220.97 220.97-220.97z"
             inkscape:original="M 267.15625 371.1875 C 141.02838 371.1875 38.84375 473.37213 38.84375 599.5 C 38.84375 725.62787 141.02838 827.8125 267.15625 827.8125 C 393.28412 827.8125 495.46875 725.62787 495.46875 599.5 C 495.46875 473.37213 393.28412 371.1875 267.15625 371.1875 z M 267.15625 379.3125 C 388.60335 379.3125 487.34375 478.0529 487.34375 599.5 C 487.34375 720.9471 388.60335 819.6875 267.15625 819.6875 C 145.70915 819.6875 46.96875 720.9471 46.96875 599.5 C 46.96875 478.0529 145.70915 379.3125 267.15625 379.3125 z "
             transform="matrix(1.0333 0 0 1.0333 -8.8966 -19.964)"
             inkscape:radius="-0.78732336" />
          <path
             id="path3594"
             d="m267.16 332.5c-147.38 0-267 119.62-267 267s119.62 267 267 267 267-119.62 267-267-119.62-267-267-267zm0 30c130.82 0 237 106.18 237 237s-106.18 237-237 237-237-106.18-237-237 106.18-237 237-237z"
             style="filter:url(#filter3597);fill:#000000"
             inkscape:connector-curvature="0"
             clip-path="url(#clipPath3603)" />
          <path
             id="path3619"
             inkscape:connector-curvature="0"
             style="fill:url(#linearGradient3215)"
             d="m267.14 332.51c-147.38 0-267 119.62-267 267s119.62 267 267 267 267-119.62 267-267-119.62-267-267-267zm0 30c130.82 0 237 106.18 237 237s-106.18 237-237 237-237-106.18-237-237 106.18-237 237-237z" />
          <path
             id="path3639"
             style="opacity:.42089;stroke:url(#linearGradient3217);stroke-width:6.0139;fill:none"
             sodipodi:type="inkscape:offset"
             d="m724.28 278.22c-219.97 0-398.44 178.47-398.44 398.44s178.47 398.41 398.44 398.41 398.44-178.44 398.44-398.41-178.47-398.44-398.44-398.44z"
             inkscape:original="M 724.28125 280.375 C 505.4757 280.375 328 457.8507 328 676.65625 C 328 895.4618 505.47522 1072.9062 724.28125 1072.9062 C 943.08728 1072.9062 1120.5625 895.46181 1120.5625 676.65625 C 1120.5625 457.8507 943.0868 280.375 724.28125 280.375 z "
             transform="matrix(.66512 0 0 .66512 -214.6 149.45)"
             inkscape:radius="2.1532261" />
          <path
             id="path3647"
             style="opacity:.42089;stroke:url(#linearGradient3217);stroke-width:6.0139;fill:none"
             sodipodi:type="inkscape:offset"
             d="m724.28 317.19c-198.89 0-359.47 160.57-359.47 359.47 0 198.89 160.57 359.44 359.47 359.44s359.47-160.54 359.47-359.44c0-198.89-160.57-359.47-359.47-359.47z"
             inkscape:original="M 724.28125 278.21875 C 504.31136 278.21875 325.84375 456.68636 325.84375 676.65625 C 325.84375 896.62613 504.31109 1075.0625 724.28125 1075.0625 C 944.25141 1075.0625 1122.7188 896.62614 1122.7188 676.65625 C 1122.7188 456.68636 944.25114 278.21875 724.28125 278.21875 z "
             transform="matrix(-.66512 0 0 -.66512 748.88 1049.6)"
             inkscape:radius="-38.96418" />
          <g
             id="g3719"
             transform="translate(-1118.3 -.25963)">
            <path
               id="rect3651"
               style="fill:#000000"
               inkscape:connector-curvature="0"
               d="m1385.8 332.5c-4.7439 0-9.4731 0.13022-14.156 0.375v11.25c0 5.54 4.46 10 10 10h8.2813c5.54 0 10-4.46 10-10v-11.25c-4.6826-0.24471-9.3818-0.375-14.125-0.375zm178.47 68.5-7.9062 7.9062c-3.9174 3.9174-3.9174 10.208 0 14.125l5.875 5.875c3.9173 3.9174 10.239 3.9174 14.156 0l7.8-7.92c-6.3168-7.0198-13.011-13.683-20.031-20zm-356.97 0.0312c-7.0091 6.308-13.692 12.96-20 19.969l7.9062 7.9062c3.9174 3.9174 10.239 3.9174 14.156 0l5.8437-5.8438c3.9174-3.9174 3.9174-10.208 0-14.125l-7.9062-7.9062zm-88.125 184.31c-0.2458 4.6928-0.375 9.4025-0.375 14.156 0 4.7438 0.1302 9.473 0.375 14.156h11.219c5.54 0 10-4.46 10-10v-8.3125c0-5.54-4.46-10-10-10h-11.219zm522 0c-5.54 0-10 4.46-10 10v8.3125c0 5.54 4.46 10 10 10h11.219c0.2448-4.6832 0.4063-9.4124 0.4063-14.156 0-4.7537-0.1605-9.4634-0.4063-14.156h-11.219zm-439 181.78c-2.5562 0-5.1351 1.0101-7.0937 2.9688l-7.9 7.91c6.3141 7.0171 13.015 13.685 20.031 20l7.9062-7.9062c3.9174-3.9174 3.9174-10.208 0-14.125l-5.875-5.875c-1.9587-1.9587-4.5063-2.9688-7.0625-2.9688zm367.03 0c-2.5562 0-5.1351 1.0101-7.0938 2.9688l-5.8437 5.8438c-3.9174 3.9174-3.9174 10.208 0 14.125l7.9375 7.9375c7.0051-6.3053 13.664-12.994 19.969-20l-7.9062-7.9062c-1.9587-1.9587-4.5063-2.9688-7.0625-2.9688zm-187.66 77.75c-5.54 0-10 4.46-10 10v11.25c4.6832 0.24478 9.4124 0.375 14.156 0.375 4.7432 0 9.4424-0.13029 14.125-0.375v-11.25c0-5.54-4.46-10-10-10h-8.2813z" />
            <path
               id="path3710"
               sodipodi:nodetypes="ccccccccccccccccccccccccccccccccccccccccccccccccccccccccc"
               inkscape:connector-curvature="0"
               style="filter:url(#filter3715);fill:#ffffff"
               d="m1371.9 333.56c-0.4672 0.0221-0.9399 0.0381-1.4062 0.0625v11.25c0 5.54 4.46 10 10 10h8.2812c3.1163 0 5.8876-1.4042 7.7188-3.625-1.7174 1.3912-3.9201 2.2188-6.3125 2.2188h-8.2813c-5.5399 0-10-4.46-10-10v-9.9062zm184.72 74.688-1.4062 1.4062c-3.9175 3.9174-3.9175 10.208 0 14.125l5.875 5.875c3.9173 3.9174 10.239 3.9174 14.156 0l1.4062-1.4062c-3.9173 3.9174-10.239 3.9174-14.156 0l-5.875-5.875c-3.9174-3.9174-3.9174-10.208 0-14.125zm-370.47 13.5 7.9063 7.9062c3.9174 3.9174 10.239 3.9174 14.156 0l1.4062-1.4062c-3.9174 3.9174-10.239 3.9174-14.156 0l-7.9063-7.9062-1.4063 1.4062zm-68.125 192.66h11.219c3.1163 0 5.8875-1.4042 7.7188-3.625-1.7174 1.3912-3.9202 2.2188-6.3126 2.2188h-11.219l-1.4063 1.4062zm515.62-26.031c-2.2207 1.8312-3.625 4.6025-3.625 7.7188v8.3125c0 5.54 4.4601 10 10 10h11.219c0.024-0.46634 0.04-0.93903 0.062-1.4062h-9.875c-5.54 0-10-4.46-10-10v-8.3125c0-2.3924 0.8275-4.5951 2.2187-6.3125h0.0005zm-77.031 186.91-1.4062 1.4062c-3.9175 3.9174-3.9175 10.208 0 14.125l7.9374 7.9375 1.4063-1.4062-7.9375-7.9375c-3.9174-3.9174-3.9174-10.208 0-14.125zm-182.5 72.625c-2.2208 1.8312-3.625 4.6025-3.625 7.7188v11.25l1.4062-1.4062v-11.25c0-2.3924 0.8276-4.5951 2.2188-6.3125z" />
          </g>
          <g
             id="g4280"
             transform="translate(-1247 -75.034)">
            <g
               id="g4136">
              <g
                 id="g3968"
                 inkscape:transform-center-y="-256.60478"
                 transform="translate(1250.8 158.48)">
                <path
                   id="path3729"
                   sodipodi:rx="7.7781744"
                   sodipodi:ry="7.7781744"
                   style="fill:url(#radialGradient3221)"
                   sodipodi:type="arc"
                   d="m 1521.3402,416.14285 c 0,4.29577 -3.4824,7.77818 -7.7782,7.77818 -4.2958,0 -7.7782,-3.48241 -7.7782,-7.77818 0,-4.29576 3.4824,-7.77817 7.7782,-7.77817 4.2958,0 7.7782,3.48241 7.7782,7.77817 z"
                   transform="matrix(1.1136 0 0 1.1136 -1422.2 -203.98)"
                   sodipodi:cy="416.14285"
                   sodipodi:cx="1513.562" />
                <path
                   id="path3739"
                   style="opacity:.70886;filter:url(#filter3744);fill:#ffffff"
                   d="m1507.2 413.22c-1.2265 1.4947-1.9688 3.3859-1.9688 5.4688 0 4.7815 3.8748 8.6562 8.6562 8.6562 2.8911 0 5.4576-1.415 7.0313-3.5938-1.5883 1.8193-3.9284 2.9688-6.5313 2.9688-4.7814 0-8.6562-3.8748-8.6562-8.6562 0-1.793 0.5345-3.4612 1.4688-4.8438z"
                   clip-path="url(#clipPath3750)"
                   inkscape:connector-curvature="0"
                   transform="translate(-1250.6 -159.23)" />
                <g
                   id="g3817"
                   style="stroke:#333333;fill:none"
                   transform="matrix(.94074 0 0 .94074 -1160.9 -134.42)">
                  <path
                     id="path3758"
                     style="stroke:#333333;stroke-width:2;fill:none"
                     inkscape:connector-curvature="0"
                     d="m1513.9 411.38v14.625" />
                  <path
                     id="path3820"
                     style="stroke:#333333;stroke-width:2;fill:none"
                     inkscape:connector-curvature="0"
                     d="m1521.2 418.69h-14.625" />
                </g>
                <path
                   id="path3791"
                   inkscape:connector-curvature="0"
                   style="opacity:.52215;block-progression:tb;text-indent:0;filter:url(#filter3900);color:#000000;text-transform:none;fill:#f9f9f9"
                   transform="matrix(.94074 0 0 .94074 -1161 -134.33)"
                   d="m1512.8 412.25v6.5h-6.3126v1h6.3126v6.3438h1v-6.3438h6.4687v-1h-6.4687v-6.5h-1z" />
              </g>
              <g
                 id="g3978"
                 transform="translate(1507.4 415.08)">
                <path
                   id="path3980"
                   sodipodi:rx="7.7781744"
                   sodipodi:ry="7.7781744"
                   style="fill:url(#radialGradient3221)"
                   sodipodi:type="arc"
                   d="m 1521.3402,416.14285 c 0,4.29577 -3.4824,7.77818 -7.7782,7.77818 -4.2958,0 -7.7782,-3.48241 -7.7782,-7.77818 0,-4.29576 3.4824,-7.77817 7.7782,-7.77817 4.2958,0 7.7782,3.48241 7.7782,7.77817 z"
                   transform="matrix(1.1136 0 0 1.1136 -1422.2 -203.98)"
                   sodipodi:cy="416.14285"
                   sodipodi:cx="1513.562" />
                <path
                   id="path3982"
                   style="opacity:.70886;filter:url(#filter3744);fill:#ffffff"
                   d="m1507.2 413.22c-1.2265 1.4947-1.9688 3.3859-1.9688 5.4688 0 4.7815 3.8748 8.6562 8.6562 8.6562 2.8911 0 5.4576-1.415 7.0313-3.5938-1.5883 1.8193-3.9284 2.9688-6.5313 2.9688-4.7814 0-8.6562-3.8748-8.6562-8.6562 0-1.793 0.5345-3.4612 1.4688-4.8438z"
                   clip-path="url(#clipPath3750)"
                   inkscape:connector-curvature="0"
                   transform="translate(-1250.6 -159.23)" />
                <g
                   id="g3984"
                   style="stroke:#333333;fill:none"
                   transform="matrix(.94074 0 0 .94074 -1160.9 -134.42)">
                  <path
                     id="path3986"
                     style="stroke:#333333;stroke-width:2;fill:none"
                     inkscape:connector-curvature="0"
                     d="m1513.9 411.38v14.625" />
                  <path
                     id="path3988"
                     style="stroke:#333333;stroke-width:2;fill:none"
                     inkscape:connector-curvature="0"
                     d="m1521.2 418.69h-14.625" />
                </g>
                <path
                   id="path3990"
                   d="m1512.8 412.25v6.5h-6.3126v1h6.3126v6.3438h1v-6.3438h6.4687v-1h-6.4687v-6.5h-1z"
                   style="opacity:.52215;block-progression:tb;text-indent:0;filter:url(#filter3900);color:#000000;text-transform:none;fill:#f9f9f9"
                   inkscape:connector-curvature="0"
                   transform="matrix(.94074 0 0 .94074 -1161 -134.33)" />
              </g>
              <g
                 id="g3994"
                 transform="translate(1250.8 671.69)">
                <path
                   id="path3996"
                   sodipodi:rx="7.7781744"
                   sodipodi:ry="7.7781744"
                   style="fill:url(#radialGradient3221)"
                   sodipodi:type="arc"
                   d="m 1521.3402,416.14285 c 0,4.29577 -3.4824,7.77818 -7.7782,7.77818 -4.2958,0 -7.7782,-3.48241 -7.7782,-7.77818 0,-4.29576 3.4824,-7.77817 7.7782,-7.77817 4.2958,0 7.7782,3.48241 7.7782,7.77817 z"
                   transform="matrix(1.1136 0 0 1.1136 -1422.2 -203.98)"
                   sodipodi:cy="416.14285"
                   sodipodi:cx="1513.562" />
                <path
                   id="path3998"
                   style="opacity:.70886;filter:url(#filter3744);fill:#ffffff"
                   d="m1507.2 413.22c-1.2265 1.4947-1.9688 3.3859-1.9688 5.4688 0 4.7815 3.8748 8.6562 8.6562 8.6562 2.8911 0 5.4576-1.415 7.0313-3.5938-1.5883 1.8193-3.9284 2.9688-6.5313 2.9688-4.7814 0-8.6562-3.8748-8.6562-8.6562 0-1.793 0.5345-3.4612 1.4688-4.8438z"
                   clip-path="url(#clipPath3750)"
                   inkscape:connector-curvature="0"
                   transform="translate(-1250.6 -159.23)" />
                <g
                   id="g4000"
                   style="stroke:#333333;fill:none"
                   transform="matrix(.94074 0 0 .94074 -1160.9 -134.42)">
                  <path
                     id="path4002"
                     style="stroke:#333333;stroke-width:2;fill:none"
                     inkscape:connector-curvature="0"
                     d="m1513.9 411.38v14.625" />
                  <path
                     id="path4004"
                     style="stroke:#333333;stroke-width:2;fill:none"
                     inkscape:connector-curvature="0"
                     d="m1521.2 418.69h-14.625" />
                </g>
                <path
                   id="path4006"
                   inkscape:connector-curvature="0"
                   style="opacity:.52215;block-progression:tb;text-indent:0;filter:url(#filter3900);color:#000000;text-transform:none;fill:#f9f9f9"
                   transform="matrix(.94074 0 0 .94074 -1161 -134.33)"
                   d="m1512.8 412.25v6.5h-6.3126v1h6.3126v6.3438h1v-6.3438h6.4687v-1h-6.4687v-6.5h-1z" />
              </g>
              <g
                 id="g4010"
                 transform="translate(994.16 415.08)">
                <path
                   id="path4012"
                   sodipodi:rx="7.7781744"
                   sodipodi:ry="7.7781744"
                   style="fill:url(#radialGradient3221)"
                   sodipodi:type="arc"
                   d="m 1521.3402,416.14285 c 0,4.29577 -3.4824,7.77818 -7.7782,7.77818 -4.2958,0 -7.7782,-3.48241 -7.7782,-7.77818 0,-4.29576 3.4824,-7.77817 7.7782,-7.77817 4.2958,0 7.7782,3.48241 7.7782,7.77817 z"
                   transform="matrix(1.1136 0 0 1.1136 -1422.2 -203.98)"
                   sodipodi:cy="416.14285"
                   sodipodi:cx="1513.562" />
                <path
                   id="path4014"
                   style="opacity:.70886;filter:url(#filter3744);fill:#ffffff"
                   d="m1507.2 413.22c-1.2265 1.4947-1.9688 3.3859-1.9688 5.4688 0 4.7815 3.8748 8.6562 8.6562 8.6562 2.8911 0 5.4576-1.415 7.0313-3.5938-1.5883 1.8193-3.9284 2.9688-6.5313 2.9688-4.7814 0-8.6562-3.8748-8.6562-8.6562 0-1.793 0.5345-3.4612 1.4688-4.8438z"
                   clip-path="url(#clipPath3750)"
                   inkscape:connector-curvature="0"
                   transform="translate(-1250.6 -159.23)" />
                <g
                   id="g4016"
                   style="stroke:#333333;fill:none"
                   transform="matrix(.94074 0 0 .94074 -1160.9 -134.42)">
                  <path
                     id="path4018"
                     style="stroke:#333333;stroke-width:2;fill:none"
                     inkscape:connector-curvature="0"
                     d="m1513.9 411.38v14.625" />
                  <path
                     id="path4020"
                     style="stroke:#333333;stroke-width:2;fill:none"
                     inkscape:connector-curvature="0"
                     d="m1521.2 418.69h-14.625" />
                </g>
                <path
                   id="path4022"
                   d="m1512.8 412.25v6.5h-6.3126v1h6.3126v6.3438h1v-6.3438h6.4687v-1h-6.4687v-6.5h-1z"
                   style="opacity:.52215;block-progression:tb;text-indent:0;filter:url(#filter3900);color:#000000;text-transform:none;fill:#f9f9f9"
                   inkscape:connector-curvature="0"
                   transform="matrix(.94074 0 0 .94074 -1161 -134.33)" />
              </g>
            </g>
            <g
               id="g4168"
               transform="translate(1069.3 233.64)">
              <path
                 id="path4170"
                 sodipodi:rx="7.7781744"
                 sodipodi:ry="7.7781744"
                 style="fill:url(#radialGradient3221)"
                 sodipodi:type="arc"
                 d="m 1521.3402,416.14285 c 0,4.29577 -3.4824,7.77818 -7.7782,7.77818 -4.2958,0 -7.7782,-3.48241 -7.7782,-7.77818 0,-4.29576 3.4824,-7.77817 7.7782,-7.77817 4.2958,0 7.7782,3.48241 7.7782,7.77817 z"
                 transform="matrix(1.1136 0 0 1.1136 -1422.2 -203.98)"
                 sodipodi:cy="416.14285"
                 sodipodi:cx="1513.562" />
              <path
                 id="path4172"
                 style="opacity:.70886;filter:url(#filter3744);fill:#ffffff"
                 d="m1507.2 413.22c-1.2265 1.4947-1.9688 3.3859-1.9688 5.4688 0 4.7815 3.8748 8.6562 8.6562 8.6562 2.8911 0 5.4576-1.415 7.0313-3.5938-1.5883 1.8193-3.9284 2.9688-6.5313 2.9688-4.7814 0-8.6562-3.8748-8.6562-8.6562 0-1.793 0.5345-3.4612 1.4688-4.8438z"
                 clip-path="url(#clipPath3750)"
                 inkscape:connector-curvature="0"
                 transform="translate(-1250.6 -159.23)" />
              <g
                 id="g4174"
                 style="stroke:#333333;fill:none"
                 transform="matrix(.94074 0 0 .94074 -1160.9 -134.42)">
                <path
                   id="path4176"
                   style="stroke:#333333;stroke-width:2;fill:none"
                   inkscape:connector-curvature="0"
                   d="m1513.9 411.38v14.625" />
                <path
                   id="path4178"
                   style="stroke:#333333;stroke-width:2;fill:none"
                   inkscape:connector-curvature="0"
                   d="m1521.2 418.69h-14.625" />
              </g>
              <path
                 id="path4180"
                 inkscape:connector-curvature="0"
                 style="opacity:.52215;block-progression:tb;text-indent:0;filter:url(#filter3900);color:#000000;text-transform:none;fill:#f9f9f9"
                 transform="matrix(.94074 0 0 .94074 -1161 -134.33)"
                 d="m1512.8 412.25v6.5h-6.3126v1h6.3126v6.3438h1v-6.3438h6.4687v-1h-6.4687v-6.5h-1z" />
            </g>
            <g
               id="g4182"
               transform="translate(1432.2 233.64)">
              <path
                 id="path4184"
                 sodipodi:rx="7.7781744"
                 sodipodi:ry="7.7781744"
                 style="fill:url(#radialGradient3221)"
                 sodipodi:type="arc"
                 d="m 1521.3402,416.14285 c 0,4.29577 -3.4824,7.77818 -7.7782,7.77818 -4.2958,0 -7.7782,-3.48241 -7.7782,-7.77818 0,-4.29576 3.4824,-7.77817 7.7782,-7.77817 4.2958,0 7.7782,3.48241 7.7782,7.77817 z"
                 transform="matrix(1.1136 0 0 1.1136 -1422.2 -203.98)"
                 sodipodi:cy="416.14285"
                 sodipodi:cx="1513.562" />
              <path
                 id="path4186"
                 style="opacity:.70886;filter:url(#filter3744);fill:#ffffff"
                 d="m1507.2 413.22c-1.2265 1.4947-1.9688 3.3859-1.9688 5.4688 0 4.7815 3.8748 8.6562 8.6562 8.6562 2.8911 0 5.4576-1.415 7.0313-3.5938-1.5883 1.8193-3.9284 2.9688-6.5313 2.9688-4.7814 0-8.6562-3.8748-8.6562-8.6562 0-1.793 0.5345-3.4612 1.4688-4.8438z"
                 clip-path="url(#clipPath3750)"
                 inkscape:connector-curvature="0"
                 transform="translate(-1250.6 -159.23)" />
              <g
                 id="g4188"
                 style="stroke:#333333;fill:none"
                 transform="matrix(.94074 0 0 .94074 -1160.9 -134.42)">
                <path
                   id="path4190"
                   style="stroke:#333333;stroke-width:2;fill:none"
                   inkscape:connector-curvature="0"
                   d="m1513.9 411.38v14.625" />
                <path
                   id="path4192"
                   style="stroke:#333333;stroke-width:2;fill:none"
                   inkscape:connector-curvature="0"
                   d="m1521.2 418.69h-14.625" />
              </g>
              <path
                 id="path4194"
                 d="m1512.8 412.25v6.5h-6.3126v1h6.3126v6.3438h1v-6.3438h6.4687v-1h-6.4687v-6.5h-1z"
                 style="opacity:.52215;block-progression:tb;text-indent:0;filter:url(#filter3900);color:#000000;text-transform:none;fill:#f9f9f9"
                 inkscape:connector-curvature="0"
                 transform="matrix(.94074 0 0 .94074 -1161 -134.33)" />
            </g>
            <g
               id="g4196"
               transform="translate(1432.2 596.53)">
              <path
                 id="path4198"
                 sodipodi:rx="7.7781744"
                 sodipodi:ry="7.7781744"
                 style="fill:url(#radialGradient3221)"
                 sodipodi:type="arc"
                 d="m 1521.3402,416.14285 c 0,4.29577 -3.4824,7.77818 -7.7782,7.77818 -4.2958,0 -7.7782,-3.48241 -7.7782,-7.77818 0,-4.29576 3.4824,-7.77817 7.7782,-7.77817 4.2958,0 7.7782,3.48241 7.7782,7.77817 z"
                 transform="matrix(1.1136 0 0 1.1136 -1422.2 -203.98)"
                 sodipodi:cy="416.14285"
                 sodipodi:cx="1513.562" />
              <path
                 id="path4200"
                 style="opacity:.70886;filter:url(#filter3744);fill:#ffffff"
                 d="m1507.2 413.22c-1.2265 1.4947-1.9688 3.3859-1.9688 5.4688 0 4.7815 3.8748 8.6562 8.6562 8.6562 2.8911 0 5.4576-1.415 7.0313-3.5938-1.5883 1.8193-3.9284 2.9688-6.5313 2.9688-4.7814 0-8.6562-3.8748-8.6562-8.6562 0-1.793 0.5345-3.4612 1.4688-4.8438z"
                 clip-path="url(#clipPath3750)"
                 inkscape:connector-curvature="0"
                 transform="translate(-1250.6 -159.23)" />
              <g
                 id="g4202"
                 style="stroke:#333333;fill:none"
                 transform="matrix(.94074 0 0 .94074 -1160.9 -134.42)">
                <path
                   id="path4204"
                   style="stroke:#333333;stroke-width:2;fill:none"
                   inkscape:connector-curvature="0"
                   d="m1513.9 411.38v14.625" />
                <path
                   id="path4206"
                   style="stroke:#333333;stroke-width:2;fill:none"
                   inkscape:connector-curvature="0"
                   d="m1521.2 418.69h-14.625" />
              </g>
              <path
                 id="path4208"
                 inkscape:connector-curvature="0"
                 style="opacity:.52215;block-progression:tb;text-indent:0;filter:url(#filter3900);color:#000000;text-transform:none;fill:#f9f9f9"
                 transform="matrix(.94074 0 0 .94074 -1161 -134.33)"
                 d="m1512.8 412.25v6.5h-6.3126v1h6.3126v6.3438h1v-6.3438h6.4687v-1h-6.4687v-6.5h-1z" />
            </g>
            <g
               id="g4210"
               transform="translate(1069.3 596.53)">
              <path
                 id="path4212"
                 sodipodi:rx="7.7781744"
                 sodipodi:ry="7.7781744"
                 style="fill:url(#radialGradient3221)"
                 sodipodi:type="arc"
                 d="m 1521.3402,416.14285 c 0,4.29577 -3.4824,7.77818 -7.7782,7.77818 -4.2958,0 -7.7782,-3.48241 -7.7782,-7.77818 0,-4.29576 3.4824,-7.77817 7.7782,-7.77817 4.2958,0 7.7782,3.48241 7.7782,7.77817 z"
                 transform="matrix(1.1136 0 0 1.1136 -1422.2 -203.98)"
                 sodipodi:cy="416.14285"
                 sodipodi:cx="1513.562" />
              <path
                 id="path4214"
                 style="opacity:.70886;filter:url(#filter3744);fill:#ffffff"
                 d="m1507.2 413.22c-1.2265 1.4947-1.9688 3.3859-1.9688 5.4688 0 4.7815 3.8748 8.6562 8.6562 8.6562 2.8911 0 5.4576-1.415 7.0313-3.5938-1.5883 1.8193-3.9284 2.9688-6.5313 2.9688-4.7814 0-8.6562-3.8748-8.6562-8.6562 0-1.793 0.5345-3.4612 1.4688-4.8438z"
                 clip-path="url(#clipPath3750)"
                 inkscape:connector-curvature="0"
                 transform="translate(-1250.6 -159.23)" />
              <g
                 id="g4216"
                 style="stroke:#333333;fill:none"
                 transform="matrix(.94074 0 0 .94074 -1160.9 -134.42)">
                <path
                   id="path4218"
                   style="stroke:#333333;stroke-width:2;fill:none"
                   inkscape:connector-curvature="0"
                   d="m1513.9 411.38v14.625" />
                <path
                   id="path4220"
                   style="stroke:#333333;stroke-width:2;fill:none"
                   inkscape:connector-curvature="0"
                   d="m1521.2 418.69h-14.625" />
              </g>
              <path
                 id="path4222"
                 d="m1512.8 412.25v6.5h-6.3126v1h6.3126v6.3438h1v-6.3438h6.4687v-1h-6.4687v-6.5h-1z"
                 style="opacity:.52215;block-progression:tb;text-indent:0;filter:url(#filter3900);color:#000000;text-transform:none;fill:#f9f9f9"
                 inkscape:connector-curvature="0"
                 transform="matrix(.94074 0 0 .94074 -1161 -134.33)" />
            </g>
          </g>
        </g>
      </g>
    </g>
  </g>
  <metadata
     id="metadata213">
    <rdf:RDF>
      <cc:Work>
        <dc:format>image/svg+xml</dc:format>
        <dc:type
           rdf:resource="http://purl.org/dc/dcmitype/StillImage" />
        <cc:license
           rdf:resource="http://creativecommons.org/licenses/publicdomain/" />
        <dc:publisher>
          <cc:Agent
             rdf:about="http://openclipart.org/">
            <dc:title>Openclipart</dc:title>
          </cc:Agent>
        </dc:publisher>
        <dc:title>Speaker</dc:title>
        <dc:date>2011-07-22T15:03:43</dc:date>
        <dc:description />
        <dc:source>https://openclipart.org/detail/151099/speaker-by-tonyk</dc:source>
        <dc:creator>
          <cc:Agent>
            <dc:title>tonyk</dc:title>
          </cc:Agent>
        </dc:creator>
        <dc:subject>
          <rdf:Bag>
            <rdf:li>loud speaker</rdf:li>
            <rdf:li>loudspeaker</rdf:li>
            <rdf:li>speaker</rdf:li>
          </rdf:Bag>
        </dc:subject>
      </cc:Work>
      <cc:License
         rdf:about="http://creativecommons.org/licenses/publicdomain/">
        <cc:permits
           rdf:resource="http://creativecommons.org/ns#Reproduction" />
        <cc:permits
           rdf:resource="http://creativecommons.org/ns#Distribution" />
        <cc:permits
           rdf:resource="http://creativecommons.org/ns#DerivativeWorks" />
      </cc:License>
    </rdf:RDF>
  </metadata>
</svg>
